disruption-vf (Autosaved).glyphspackage
{
glyphname = B;
layers = (
{
layerId = m01;
shapes = (
{
closed = 1;
nodes = (
(441,669,l),
(432,691,o),
(443,663,o),
(441,669,cs),
(427,724,o),
(382,800,o),
(260,800,cs),
(170,800,l),
(170,572,l),
(230,593,l),
(230,750,l),
(260,750,ls),
(347,750,o),
(370,701,o),
(377,682,cs),
(380,674,o),
(384,656,o),
(386,648,c)
);
},
{
closed = 1;
nodes = (
(441,386,l),
(417,415,o),
(394,426,o),
(370,434,c),
(408,458,o),
(435,498,o),
(445,559,c),
(379,536,l),
(365,491,o),
(330,460,o),
(250,460,cs),
(230,460,l),
(230,483,l),
(170,462,l),
(170,334,l),
(230,345,l),
(230,400,l),
(250,400,ls),
(306,400,o),
(339,390,o),
(369,372,c)
);
},
{
closed = 1;
nodes = (
(110,750,l),
(186,750,l),
(186,800,l),
(110,800,l)
);
},
{
closed = 1;
nodes = (
(424,282,l),
(428,260,o),
(430,250,o),
(430,222,cs),
(430,92,o),
(390,50,o),
(293,50,cs),
(230,50,l),
(230,245,l),
(170,234,l),
(170,50,l),
(110,50,l),
(110,0,l),
(295,0,ls),
(426,0,o),
(490,62,o),
(490,222,cs),
(490,256,o),
(484,294,o),
(484,294,c)
);
}
);
width = 600;
},
{
associatedMasterId = m01;
layerId = "5A63293C-0CC5-4D07-B318-6B35A0CAB80B";
name = "8. Aug 23, 19:14";
shapes = (
{
closed = 1;
nodes = (
(140,800,l),
(140,0,l),
(200,0,l),
(200,380,l),
(270,380,ls),
(390,380,o),
(495,421,o),
(495,581,cs),
(495,741,o),
(400,800,o),
(280,800,cs)
);
},
{
closed = 1;
nodes = (
(200,750,l),
(280,750,ls),
(385,750,o),
(435,690,o),
(435,580,cs),
(435,470,o),
(375,430,o),
(270,430,cs),
(200,430,l)
);
},
{
closed = 1;
nodes = (
(313,0,l),
(433,0,o),
(548,53,o),
(548,213,cs),
(548,373,o),
(433,432,o),
(313,432,c),
(313,382,l),
(418,382,o),
(488,322,o),
(488,212,cs),
(488,102,o),
(418,50,o),
(313,50,c)
);
},
{
closed = 1;
nodes = (
(74,0,l),
(315,0,l),
(315,50,l),
(74,50,l)
);
}
);
width = 600;
},
{
layerId = m002;
shapes = (
{
closed = 1;
nodes = (
(406,739,l),
(392,757,o),
(378,768,o),
(364,775,c),
(350,782,o),
(322,800,o),
(260,800,cs),
(170,800,l),
(170,642,l),
(230,663,l),
(230,750,l),
(260,750,ls),
(287,750,o),
(308,748,o),
(327,737,cs),
(336,732,o),
(346,726,o),
(355,718,c)
);
},
{
closed = 1;
nodes = (
(441,386,l),
(417,415,o),
(394,426,o),
(370,434,c),
(408,458,o),
(429,490,o),
(439,536,c),
(370,513,l),
(356,491,o),
(330,460,o),
(250,460,cs),
(230,460,l),
(230,460,l),
(170,439,l),
(170,334,l),
(230,345,l),
(230,400,l),
(250,400,ls),
(306,400,o),
(339,390,o),
(369,372,c)
);
},
{
closed = 1;
nodes = (
(110,750,l),
(186,750,l),
(186,800,l),
(110,800,l)
);
},
{
closed = 1;
nodes = (
(428,182,l),
(427,166,o),
(425,141,o),
(416,118,cs),
(408,99,o),
(390,50,o),
(293,50,cs),
(230,50,l),
(230,145,l),
(170,134,l),
(170,50,l),
(110,50,l),
(110,0,l),
(295,0,ls),
(426,0,o),
(464,67,o),
(478,119,cs),
(483,136,o),
(490,195,o),
(490,195,c)
);
}
);
width = 600;
},
{
associatedMasterId = m002;
layerId = "935A3C35-6BA9-4E2C-808E-095B264BB994";
name = "8. Aug 23, 19:14";
shapes = (
{
closed = 1;
nodes = (
(140,800,l),
(140,0,l),
(200,0,l),
(200,380,l),
(270,380,ls),
(390,380,o),
(495,421,o),
(495,581,cs),
(495,741,o),
(400,800,o),
(280,800,cs)
);
},
{
closed = 1;
nodes = (
(200,750,l),
(280,750,ls),
(385,750,o),
(435,690,o),
(435,580,cs),
(435,470,o),
(375,430,o),
(270,430,cs),
(200,430,l)
);
},
{
closed = 1;
nodes = (
(313,0,l),
(433,0,o),
(548,53,o),
(548,213,cs),
(548,373,o),
(433,432,o),
(313,432,c),
(313,382,l),
(418,382,o),
(488,322,o),
(488,212,cs),
(488,102,o),
(418,50,o),
(313,50,c)
);
},
{
closed = 1;
nodes = (
(74,0,l),
(315,0,l),
(315,50,l),
(74,50,l)
);
}
);
width = 600;
},
{
associatedMasterId = m01;
layerId = "7C6FFA5A-CBB9-446B-BC64-DACD58F30DD0";
name = "9. Mar 24, 16:47";
shapes = (
{
closed = 1;
nodes = (
(140,800,l),
(140,0,l),
(200,0,l),
(200,380,l),
(270,380,ls),
(390,380,o),
(495,421,o),
(495,581,cs),
(495,741,o),
(400,800,o),
(280,800,cs)
);
},
{
closed = 1;
nodes = (
(200,750,l),
(280,750,ls),
(385,750,o),
(435,690,o),
(435,580,cs),
(435,470,o),
(375,430,o),
(270,430,cs),
(200,430,l)
);
},
{
closed = 1;
nodes = (
(313,0,l),
(433,0,o),
(548,53,o),
(548,213,cs),
(548,373,o),
(433,432,o),
(313,432,c),
(313,382,l),
(418,382,o),
(488,322,o),
(488,212,cs),
(488,102,o),
(418,50,o),
(313,50,c)
);
},
{
closed = 1;
nodes = (
(74,0,l),
(315,0,l),
(315,50,l),
(74,50,l)
);
}
);
width = 600;
},
{
associatedMasterId = m002;
layerId = "D12D2518-52B9-451A-B52D-6F0BFEFBBF89";
name = "20. Mar 24, 16:48";
shapes = (
{
closed = 1;
nodes = (
(170,800,l),
(170,50,l),
(110,50,l),
(110,0,l),
(295,0,ls),
(426,0,o),
(490,62,o),
(490,222,cs),
(490,373,o),
(417,418,o),
(370,434,c),
(417,464,o),
(448,518,o),
(448,608,cs),
(448,698,o),
(402,800,o),
(260,800,cs)
);
},
{
closed = 1;
nodes = (
(230,750,l),
(260,750,ls),
(347,750,o),
(388,707,o),
(388,607,cs),
(388,527,o),
(367,460,o),
(250,460,cs),
(230,460,l)
);
},
{
closed = 1;
nodes = (
(230,50,l),
(230,400,l),
(250,400,ls),
(368,400,o),
(430,352,o),
(430,222,cs),
(430,92,o),
(390,50,o),
(293,50,cs)
);
},
{
closed = 1;
nodes = (
(110,750,l),
(186,750,l),
(186,800,l),
(110,800,l)
);
}
);
width = 600;
}
);
unicode = 66;
}
{
color = 3;
glyphname = D;
layers = (
{
layerId = m01;
shapes = (
{
closed = 1;
nodes = (
(216,668,l),
(216,800,l),
(156,800,l),
(156,699,l)
);
},
{
closed = 1;
nodes = (
(471,469,l),
(470,702,o),
(427,800,o),
(302,800,cs),
(241,800,o),
(116,800,o),
(116,800,c),
(116,750,l),
(305,750,l),
(388,750,o),
(416,663,o),
(416,457,cs),
(416,457,o),
(416,457,o),
(416,457,c)
);
},
{
closed = 1;
nodes = (
(416,337,l),
(416,123,o),
(379,50,o),
(309,50,c),
(116,50,l),
(116,0,l),
(310,0,l),
(421,0,o),
(471,99,o),
(471,349,cs),
(471,354,o),
(471,344,o),
(471,349,c)
);
},
{
closed = 1;
nodes = (
(216,242,l),
(216,568,l),
(156,599,l),
(156,220,l)
);
},
{
closed = 1;
nodes = (
(156,110,l),
(156,0,l),
(216,0,l),
(216,132,l)
);
}
);
width = 600;
},
{
layerId = m002;
shapes = (
{
closed = 1;
nodes = (
(216,668,l),
(216,800,l),
(156,800,l),
(156,699,l)
);
},
{
closed = 1;
nodes = (
(471,509,l),
(470,722,o),
(407,800,o),
(302,800,cs),
(241,800,o),
(116,800,o),
(116,800,c),
(116,750,l),
(305,750,l),
(368,750,o),
(416,683,o),
(416,497,cs),
(416,497,o),
(416,497,o),
(416,497,c)
);
},
{
closed = 1;
nodes = (
(416,297,l),
(416,113,o),
(369,50,o),
(309,50,c),
(116,50,l),
(116,0,l),
(310,0,l),
(411,0,o),
(471,89,o),
(471,309,cs),
(471,314,o),
(471,304,o),
(471,309,c)
);
},
{
closed = 1;
nodes = (
(216,342,l),
(216,468,l),
(156,499,l),
(156,320,l)
);
},
{
closed = 1;
nodes = (
(156,110,l),
(156,0,l),
(216,0,l),
(216,132,l)
);
}
);
width = 600;
},
{
associatedMasterId = m002;
layerId = "7C7B9CEB-0A5D-42DE-8985-78A380E2A153";
name = "20. Mar 24, 18:52";
shapes = (
{
closed = 1;
nodes = (
(156,0,l),
(216,0,l),
(216,800,l),
(156,800,l)
);
},
{
closed = 1;
nodes = (
(116,0,l),
(310,0,l),
(431,0,o),
(471,101,o),
(471,405,cs),
(471,716,o),
(429,800,o),
(302,800,cs),
(241,800,o),
(116,800,o),
(116,800,c),
(116,750,l),
(305,750,l),
(388,750,o),
(416,679,o),
(416,407,cs),
(416,139,o),
(389,50,o),
(309,50,c),
(116,50,l)
);
}
);
width = 600;
}
);
unicode = 68;
}
{
glyphname = F;
layers = (
{
layerId = m01;
shapes = (
{
closed = 1;
nodes = (
(200,678,l),
(200,750,l),
(460,750,l),
(460,800,l),
(140,800,l),
(140,731,l)
);
},
{
closed = 1;
nodes = (
(140,310,l),
(140,0,l),
(200,0,l),
(200,259,l)
);
},
{
closed = 1;
nodes = (
(140,600,l),
(140,447,l),
(200,400,l),
(200,459,l),
(410,459,l),
(410,509,l),
(200,509,l),
(200,552,l)
);
}
);
width = 600;
},
{
layerId = m002;
shapes = (
{
closed = 1;
nodes = (
(200,750,l),
(200,750,l),
(409,750,l),
(460,800,l),
(140,800,l),
(140,800,l)
);
},
{
closed = 1;
nodes = (
(140,250,l),
(140,50,l),
(200,0,l),
(200,200,l)
);
},
{
closed = 1;
nodes = (
(140,600,l),
(140,447,l),
(200,400,l),
(200,459,l),
(350,459,l),
(295,509,l),
(200,509,l),
(200,552,l)
);
}
);
width = 600;
},
{
associatedMasterId = m01;
layerId = "D0F0B5E6-2833-4720-ACC1-DEF3DBA66D4B";
name = "9. Mar 24, 17:14";
shapes = (
{
closed = 1;
nodes = (
(140,0,l),
(200,0,l),
(200,459,l),
(410,459,l),
(410,509,l),
(200,509,l),
(200,750,l),
(460,750,l),
(460,800,l),
(140,800,l)
);
}
);
visible = 1;
width = 600;
}
);
unicode = 70;
}
{
glyphname = H;
layers = (
{
layerId = m01;
shapes = (
{
closed = 1;
nodes = (
(204,630,l),
(204,800,l),
(144,800,l),
(144,580,l)
);
},
{
closed = 1;
nodes = (
(456,700,l),
(456,800,l),
(396,800,l),
(396,750,l)
);
},
{
closed = 1;
nodes = (
(456,182,l),
(453,577,l),
(396,620,l),
(396,467,l),
(204,467,l),
(204,500,l),
(144,451,l),
(144,420,l),
(204,376,l),
(204,417,l),
(396,417,l),
(396,228,l)
);
},
{
closed = 1;
nodes = (
(144,300,l),
(144,0,l),
(204,0,l),
(204,249,l)
);
},
{
closed = 1;
nodes = (
(396,88,l),
(396,0,l),
(456,0,l),
(456,38,l)
);
}
);
width = 600;
},
{
layerId = m002;
shapes = (
{
closed = 1;
nodes = (
(204,730,l),
(204,800,l),
(144,800,l),
(144,680,l)
);
},
{
closed = 1;
nodes = (
(456,750,l),
(456,800,l),
(396,800,l),
(396,800,l)
);
},
{
closed = 1;
nodes = (
(456,212,l),
(453,577,l),
(396,620,l),
(396,467,l),
(204,467,l),
(204,500,l),
(144,451,l),
(144,420,l),
(204,376,l),
(204,417,l),
(396,417,l),
(396,258,l)
);
},
{
closed = 1;
nodes = (
(144,200,l),
(144,0,l),
(204,0,l),
(204,149,l)
);
},
{
closed = 1;
nodes = (
(396,48,l),
(396,0,l),
(456,0,l),
(456,0,l)
);
}
);
width = 600;
},
{
associatedMasterId = m002;
layerId = "833C6A93-AFDE-447D-98AE-2BE7E298A484";
name = "9. Mar 24, 17:17";
shapes = (
{
closed = 1;
nodes = (
(144,0,l),
(204,0,l),
(204,417,l),
(396,417,l),
(396,0,l),
(456,0,l),
(456,800,l),
(396,800,l),
(396,467,l),
(204,467,l),
(204,800,l),
(144,800,l)
);
}
);
width = 600;
}
);
unicode = 72;
}
{
glyphname = I;
layers = (
{
layerId = m01;
shapes = (
{
closed = 1;
nodes = (
(321,700,l),
(321,750,l),
(450,750,l),
(450,800,l),
(150,800,l),
(150,750,l),
(261,750,l),
(261,750,l)
);
},
{
closed = 1;
nodes = (
(321,300,l),
(321,580,l),
(261,630,l),
(261,350,l)
);
},
{
closed = 1;
nodes = (
(261,229,l),
(261,50,l),
(150,50,l),
(150,0,l),
(450,0,l),
(450,50,l),
(321,50,l),
(321,180,l)
);
}
);
width = 600;
},
{
layerId = m002;
shapes = (
{
closed = 1;
nodes = (
(321,700,l),
(321,750,l),
(401,750,l),
(450,800,l),
(200,800,l),
(150,750,l),
(261,750,l),
(261,750,l)
);
},
{
closed = 1;
nodes = (
(321,300,l),
(321,480,l),
(261,530,l),
(261,350,l)
);
},
{
closed = 1;
nodes = (
(261,119,l),
(261,50,l),
(200,50,l),
(150,0,l),
(450,0,l),
(401,50,l),
(321,50,l),
(321,70,l)
);
}
);
width = 600;
},
{
associatedMasterId = m01;
layerId = "4C23B8EF-977D-4E2B-8064-394A508133AB";
name = "9. Mar 24, 17:20";
shapes = (
{
closed = 1;
nodes = (
(150,757,l),
(261,757,l),
(261,47,l),
(150,47,l),
(150,-3,l),
(450,-3,l),
(450,47,l),
(321,47,l),
(321,757,l),
(450,757,l),
(450,807,l),
(150,807,l)
);
}
);
width = 600;
}
);
unicode = 73;
}
{
glyphname = L;
layers = (
{
layerId = m01;
shapes = (
{
closed = 1;
nodes = (
(200,650,l),
(200,800,l),
(140,800,l),
(140,600,l)
);
},
{
closed = 1;
nodes = (
(140,100,l),
(140,0,l),
(460,0,l),
(460,50,l),
(200,50,l),
(200,50,l)
);
},
{
closed = 1;
nodes = (
(140,502,l),
(140,200,l),
(200,150,l),
(200,550,l)
);
}
);
width = 600;
},
{
associatedMasterId = m01;
layerId = "8336CE71-5F6C-4447-BD78-46428336A016";
name = "8. Aug 23, 19:52";
shapes = (
{
closed = 1;
nodes = (
(140,0,l),
(200,0,l),
(200,800,l),
(140,800,l)
);
},
{
closed = 1;
nodes = (
(140,-3,l),
(460,-3,l),
(460,47,l),
(140,47,l)
);
}
);
width = 600;
},
{
layerId = m002;
shapes = (
{
closed = 1;
nodes = (
(200,800,l),
(200,800,l),
(140,800,l),
(140,750,l)
);
},
{
closed = 1;
nodes = (
(140,100,l),
(140,0,l),
(460,0,l),
(412,50,l),
(200,50,l),
(200,50,l)
);
},
{
closed = 1;
nodes = (
(140,502,l),
(140,340,l),
(200,290,l),
(200,550,l)
);
}
);
width = 600;
},
{
associatedMasterId = m002;
layerId = "4286BBF4-E502-464C-8793-468B64FD7EDF";
name = "8. Aug 23, 19:52";
shapes = (
{
closed = 1;
nodes = (
(140,0,l),
(200,0,l),
(200,800,l),
(140,800,l)
);
},
{
closed = 1;
nodes = (
(140,-3,l),
(460,-3,l),
(460,47,l),
(140,47,l)
);
}
);
width = 600;
},
{
associatedMasterId = m01;
layerId = "814FC23B-5959-4959-BED7-B8AB596BEDBC";
name = "9. Mar 24, 17:23";
shapes = (
{
closed = 1;
nodes = (
(140,-3,l),
(460,-3,l),
(460,47,l),
(200,47,l),
(200,800,l),
(140,800,l)
);
}
);
width = 600;
}
);
unicode = 76;
}
{
glyphname = M;
layers = (
{
layerId = m01;
shapes = (
{
closed = 1;
nodes = (
(318,492,l),
(368,503,l),
(418,678,l),
(418,515,l),
(478,530,l),
(478,800,l),
(398,765,l),
(326,519,l)
);
},
{
closed = 1;
nodes = (
(182,204,l),
(182,346,l),
(122,331,l),
(122,219,l)
);
},
{
closed = 1;
nodes = (
(278,366,l),
(303,289,l),
(306,289,l),
(335,388,l)
);
},
{
closed = 1;
nodes = (
(478,130,l),
(478,420,l),
(418,405,l),
(418,145,l)
);
},
{
closed = 1;
nodes = (
(286,503,l),
(217,722,l),
(122,682,l),
(122,446,l),
(182,461,l),
(182,678,l),
(245,476,l),
(292,486,l)
);
},
{
closed = 1;
nodes = (
(122,89,l),
(122,0,l),
(182,0,l),
(182,74,l)
);
},
{
closed = 1;
nodes = (
(418,15,l),
(418,0,l),
(478,0,l),
(478,0,l)
);
}
);
width = 600;
},
{
layerId = m002;
shapes = (
{
closed = 1;
nodes = (
(345,589,l),
(395,600,l),
(418,678,l),
(418,605,l),
(478,620,l),
(478,800,l),
(408,800,l),
(352,609,l)
);
},
{
closed = 1;
nodes = (
(182,264,l),
(182,346,l),
(122,331,l),
(122,279,l)
);
},
{
closed = 1;
nodes = (
(278,366,l),
(303,289,l),
(306,289,l),
(335,388,l)
);
},
{
closed = 1;
nodes = (
(478,190,l),
(478,420,l),
(418,405,l),
(418,205,l)
);
},
{
closed = 1;
nodes = (
(258,593,l),
(204,764,l),
(122,734,l),
(122,536,l),
(182,551,l),
(182,678,l),
(216,566,l),
(263,576,l)
);
},
{
closed = 1;
nodes = (
(122,89,l),
(122,0,l),
(182,0,l),
(182,74,l)
);
},
{
closed = 1;
nodes = (
(418,15,l),
(418,0,l),
(478,0,l),
(478,0,l)
);
}
);
width = 600;
},
{
associatedMasterId = m01;
layerId = "DF41B53A-AD45-4285-8472-23D4EE16CB08";
name = "12. Mar 24, 11:11";
shapes = (
{
closed = 1;
nodes = (
(122,0,l),
(182,0,l),
(182,678,l),
(303,289,l),
(306,289,l),
(418,678,l),
(418,0,l),
(478,0,l),
(478,800,l),
(408,800,l),
(306,450,l),
(303,450,l),
(192,800,l),
(122,800,l)
);
}
);
visible = 1;
width = 600;
}
);
unicode = 77;
}
{
glyphname = P;
layers = (
{
layerId = m01;
shapes = (
{
closed = 1;
nodes = (
(460,683,l),
(460,683,o),
(460,683,o),
(460,683,cs),
(454,705,o),
(405,800,o),
(265,800,cs),
(166,800,l),
(166,579,l),
(226,599,l),
(226,750,l),
(265,750,ls),
(366,750,o),
(397,681,o),
(405,662,cs),
(405,662,o),
(405,662,o),
(405,662,c)
);
},
{
closed = 1;
nodes = (
(166,151,l),
(166,0,l),
(226,0,l),
(226,126,l)
);
},
{
closed = 1;
nodes = (
(419,543,l),
(409,450,o),
(351,400,o),
(255,400,cs),
(226,400,l),
(226,479,l),
(166,459,l),
(166,281,l),
(226,256,l),
(226,350,l),
(255,350,ls),
(373,350,o),
(476,409,o),
(480,563,c)
);
}
);
width = 600;
},
{
associatedMasterId = m01;
layerId = "72BA07FE-7C07-4576-A48A-63A6EE677067";
name = "8. Aug 23, 19:06";
shapes = (
{
closed = 1;
nodes = (
(350,750,l),
(435,750,o),
(445,672,o),
(445,610,cs),
(445,552,o),
(425,470,o),
(340,470,c),
(340,420,l),
(460,420,o),
(505,517,o),
(505,611,cs),
(505,712,o),
(470,800,o),
(350,800,c)
);
},
{
closed = 1;
nodes = (
(140,0,l),
(200,0,l),
(200,800,l),
(140,800,l)
);
},
{
closed = 1;
nodes = (
(140,750,l),
(350,750,l),
(350,800,l),
(140,800,l)
);
},
{
closed = 1;
nodes = (
(170,420,l),
(340,420,l),
(340,470,l),
(170,470,l)
);
}
);
width = 600;
},
{
layerId = m002;
shapes = (
{
closed = 1;
nodes = (
(452,700,l),
(452,700,o),
(452,700,o),
(452,700,cs),
(444,716,o),
(396,800,o),
(265,800,cs),
(166,800,l),
(166,599,l),
(226,619,l),
(226,750,l),
(265,750,ls),
(360,750,o),
(392,689,o),
(397,679,cs),
(397,679,o),
(397,679,o),
(397,679,c)
);
},
{
closed = 1;
nodes = (
(166,80,l),
(166,0,l),
(226,0,l),
(226,55,l)
);
},
{
closed = 1;
nodes = (
(390,461,l),
(377,436,o),
(331,400,o),
(255,400,cs),
(226,400,l),
(226,400,l),
(166,380,l),
(166,321,l),
(226,296,l),
(226,350,l),
(255,350,ls),
(377,350,o),
(446,413,o),
(466,481,c)
);
}
);
width = 600;
},
{
associatedMasterId = m002;
layerId = "7239F753-41A4-4E7C-8930-32C51E439612";
name = "8. Aug 23, 19:06";
shapes = (
{
closed = 1;
nodes = (
(350,750,l),
(435,750,o),
(445,672,o),
(445,610,cs),
(445,552,o),
(425,470,o),
(340,470,c),
(340,420,l),
(460,420,o),
(505,517,o),
(505,611,cs),
(505,712,o),
(470,800,o),
(350,800,c)
);
},
{
closed = 1;
nodes = (
(140,0,l),
(200,0,l),
(200,800,l),
(140,800,l)
);
},
{
closed = 1;
nodes = (
(140,750,l),
(350,750,l),
(350,800,l),
(140,800,l)
);
},
{
closed = 1;
nodes = (
(170,420,l),
(340,420,l),
(340,470,l),
(170,470,l)
);
}
);
width = 600;
},
{
associatedMasterId = m002;
layerId = "192ED8CC-36D5-4D3D-8275-E447E8D7AD64";
name = "20. Mar 24, 14:20";
shapes = (
{
closed = 1;
nodes = (
(166,800,l),
(166,0,l),
(226,0,l),
(226,350,l),
(255,350,ls),
(375,350,o),
(480,411,o),
(480,571,cs),
(480,731,o),
(385,800,o),
(265,800,cs)
);
},
{
closed = 1;
nodes = (
(226,750,l),
(265,750,ls),
(370,750,o),
(420,680,o),
(420,570,cs),
(420,460,o),
(360,400,o),
(255,400,cs),
(226,400,l)
);
}
);
visible = 1;
width = 600;
}
);
unicode = 80;
}
{
glyphname = Q;
layers = (
{
layerId = m01;
shapes = (
{
closed = 1;
nodes = (
(423,659,l),
(406,753,o),
(371,810,o),
(279,810,cs),
(160,810,o),
(127,738,o),
(126,581,c),
(181,595,l),
(183,704,o),
(201,760,o),
(282,760,cs),
(341,760,o),
(363,718,o),
(374,644,c)
);
},
{
closed = 1;
nodes = (
(364,105,l),
(364,105,l),
(342,51,o),
(315,40,o),
(286,40,cs),
(216,40,o),
(207,98,o),
(193,156,c),
(138,172,l),
(159,65,o),
(186,-10,o),
(287,-10,cs),
(331,-10,o),
(364,5,o),
(387,39,c),
(436,-10,l),
(471,27,l),
(410,88,l),
(411,90,o),
(410,86,o),
(410,88,c)
);
},
{
closed = 1;
nodes = (
(126,431,l),
(126,424,o),
(126,418,o),
(126,411,cs),
(125,367,o),
(125,336,o),
(127,304,c),
(182,290,l),
(181,318,o),
(180,342,o),
(181,411,cs),
(181,423,o),
(181,434,o),
(181,445,c)
);
},
{
closed = 1;
nodes = (
(383,495,l),
(384,470,o),
(384,442,o),
(384,411,cs),
(384,298,o),
(382,289,o),
(381,238,c),
(381,238,l),
(432,221,l),
(432,221,l),
(432,221,l),
(437,278,o),
(439,284,o),
(439,411,cs),
(439,446,o),
(438,479,o),
(437,509,c)
);
}
);
width = 600;
},
{
layerId = m002;
shapes = (
{
closed = 1;
nodes = (
(414,702,l),
(400,745,o),
(371,810,o),
(279,810,cs),
(160,810,o),
(129,730,o),
(128,624,c),
(183,638,l),
(185,696,o),
(201,760,o),
(282,760,cs),
(341,760,o),
(356,710,o),
(367,687,c)
);
},
{
closed = 1;
nodes = (
(364,105,l),
(364,105,l),
(342,51,o),
(315,40,o),
(286,40,cs),
(216,40,o),
(207,98,o),
(193,156,c),
(138,172,l),
(159,65,o),
(186,-10,o),
(287,-10,cs),
(331,-10,o),
(364,5,o),
(387,39,c),
(436,-10,l),
(471,27,l),
(410,88,l),
(411,90,o),
(410,86,o),
(410,88,c)
);
},
{
closed = 1;
nodes = (
(126,431,l),
(126,424,o),
(126,418,o),
(126,411,cs),
(126,401,o),
(125,387,o),
(125,369,c),
(181,355,l),
(181,393,o),
(181,372,o),
(181,411,cs),
(181,423,o),
(181,434,o),
(181,445,c)
);
},
{
closed = 1;
nodes = (
(383,495,l),
(384,470,o),
(384,442,o),
(384,411,cs),
(384,378,o),
(384,354,o),
(383,303,c),
(383,303,l),
(437,286,l),
(437,286,l),
(437,286,l),
(440,343,o),
(439,364,o),
(439,411,cs),
(439,446,o),
(438,479,o),
(437,509,c)
);
}
);
width = 600;
},
{
associatedMasterId = m002;
layerId = "24383CC5-496E-4774-9893-ECC96EC88391";
name = "20. Mar 24, 15:27";
shapes = (
{
closed = 1;
nodes = (
(407,-10,o),
(439,97,o),
(439,411,cs),
(439,722,o),
(399,810,o),
(279,810,cs),
(157,810,o),
(126,714,o),
(126,411,cs),
(126,89,o),
(167,-10,o),
(287,-10,cs)
);
},
{
closed = 1;
nodes = (
(201,40,o),
(181,127,o),
(181,411,cs),
(181,677,o),
(197,760,o),
(282,760,cs),
(367,760,o),
(384,683,o),
(384,411,cs),
(384,133,o),
(371,40,o),
(286,40,cs)
);
},
{
closed = 1;
nodes = (
(300,128,l),
(435,-10,l),
(471,26,l),
(335,163,l)
);
}
);
visible = 1;
width = 600;
}
);
unicode = 81;
}
{
glyphname = R;
layers = (
{
layerId = m01;
shapes = (
{
closed = 1;
nodes = (
(446,529,l),
(449,552,o),
(449,561,o),
(449,571,cs),
(449,731,o),
(354,800,o),
(234,800,cs),
(135,800,l),
(135,634,l),
(195,614,l),
(195,750,l),
(234,750,ls),
(339,750,o),
(389,680,o),
(389,570,cs),
(389,564,o),
(389,557,o),
(388,548,c)
);
},
{
closed = 1;
nodes = (
(361,344,l),
(349,378,l),
(381,395,o),
(389,409,o),
(399,416,c),
(339,438,l),
(316,415,o),
(278,400,o),
(224,400,cs),
(195,400,l),
(195,484,l),
(135,504,l),
(135,266,l),
(195,286,l),
(195,350,l),
(224,350,ls),
(251,350,o),
(277,353,o),
(301,359,c),
(309,326,l)
);
},
{
closed = 1;
nodes = (
(135,136,l),
(135,0,l),
(195,0,l),
(195,156,l)
);
},
{
closed = 1;
nodes = (
(348,200,l),
(405,0,l),
(465,28,l),
(402,221,l)
);
}
);
width = 600;
},
{
layerId = m002;
shapes = (
{
closed = 1;
nodes = (
(447,609,l),
(447,615,o),
(442,645,o),
(439,655,cs),
(419,721,o),
(367,800,o),
(234,800,cs),
(135,800,l),
(135,714,l),
(195,694,l),
(195,750,l),
(234,750,ls),
(338,750,o),
(368,679,o),
(374,661,cs),
(379,647,o),
(383,629,o),
(383,628,c)
);
},
{
closed = 1;
nodes = (
(361,344,l),
(349,378,l),
(381,395,o),
(389,409,o),
(399,416,c),
(339,438,l),
(316,415,o),
(278,400,o),
(224,400,cs),
(195,400,l),
(195,484,l),
(135,504,l),
(135,266,l),
(195,286,l),
(195,350,l),
(224,350,ls),
(251,350,o),
(277,353,o),
(301,359,c),
(309,326,l)
);
},
{
closed = 1;
nodes = (
(135,56,l),
(135,0,l),
(195,0,l),
(195,76,l)
);
},
{
closed = 1;
nodes = (
(371,120,l),
(405,0,l),
(465,28,l),
(427,141,l)
);
}
);
width = 600;
},
{
associatedMasterId = m01;
layerId = "52C267BC-0BA2-4C36-AE87-82B1082A9C32";
name = "20. Mar 24, 16:18";
shapes = (
{
closed = 1;
nodes = (
(135,800,l),
(135,0,l),
(195,0,l),
(195,350,l),
(224,350,ls),
(344,350,o),
(449,411,o),
(449,571,cs),
(449,731,o),
(354,800,o),
(234,800,cs)
);
},
{
closed = 1;
nodes = (
(195,750,l),
(234,750,ls),
(339,750,o),
(389,680,o),
(389,570,cs),
(389,460,o),
(329,400,o),
(224,400,cs),
(195,400,l)
);
},
{
closed = 1;
nodes = (
(405,0,l),
(465,28,l),
(339,408,l),
(295,379,l)
);
}
);
visible = 1;
width = 600;
}
);
unicode = 82;
}
{
glyphname = S;
layers = (
{
layerId = m01;
shapes = (
{
closed = 1;
nodes = (
(274,461,l),
(268,466,o),
(280,456,o),
(274,461,cs),
(234,496,o),
(210,542,o),
(210,607,cs),
(210,670,o),
(215,760,o),
(300,760,cs),
(385,760,o),
(389,681,o),
(399,610,c),
(454,622,l),
(444,705,o),
(420,810,o),
(300,810,cs),
(180,810,o),
(150,704,o),
(150,607,cs),
(150,520,o),
(197,451,o),
(219,436,c)
);
},
{
closed = 1;
nodes = (
(307,363,l),
(317,356,o),
(330,347,o),
(335,343,cs),
(376,312,o),
(395,271,o),
(395,211,cs),
(395,159,o),
(385,40,o),
(300,40,cs),
(215,40,o),
(207,142,o),
(199,211,c),
(144,199,l),
(152,113,o),
(180,-10,o),
(300,-10,cs),
(420,-10,o),
(455,114,o),
(455,211,cs),
(455,298,o),
(421,355,o),
(365,394,c)
);
}
);
width = 600;
},
{
associatedMasterId = m01;
layerId = "6ECA9D09-E98A-485F-803C-27B63B4FDAA4";
name = "8. Aug 23, 16:37";
shapes = (
{
closed = 0;
nodes = (
(454,600,l),
(454,685,o),
(420,810,o),
(300,810,cs),
(180,810,o),
(145,672,o),
(145,597,cs),
(145,477,o),
(218,423,o),
(300,400,cs),
(385,376,o),
(454,328,o),
(454,208,cs),
(454,133,o),
(430,-10,o),
(300,-10,c),
(170,-10,o),
(150,123,o),
(150,208,c)
);
}
);
width = 600;
},
{
associatedMasterId = m01;
layerId = "7F75E41E-740C-4DC3-9E1A-D02B95F2195F";
name = "8. Aug 23, 16:49";
shapes = (
{
closed = 1;
nodes = (
(155,123,o),
(180,-10,o),
(300,-10,cs),
(420,-10,o),
(456,124,o),
(456,221,cs),
(456,361,o),
(384,406,o),
(307,431,cs),
(230,456,o),
(199,492,o),
(199,597,cs),
(199,660,o),
(215,765,o),
(300,765,cs),
(385,765,o),
(393,671,o),
(403,600,c),
(453,612,l),
(443,695,o),
(420,810,o),
(300,810,cs),
(180,810,o),
(149,694,o),
(149,597,cs),
(149,457,o),
(216,407,o),
(293,382,cs),
(369,357,o),
(406,326,o),
(406,221,cs),
(406,169,o),
(385,35,o),
(300,35,cs),
(215,35,o),
(205,152,o),
(195,221,c),
(145,209,l)
);
}
);
width = 600;
},
{
layerId = m002;
shapes = (
{
closed = 1;
nodes = (
(231,516,l),
(231,516,o),
(231,516,o),
(231,516,cs),
(220,530,o),
(210,566,o),
(210,607,cs),
(210,670,o),
(215,760,o),
(300,760,cs),
(357,760,o),
(374,724,o),
(384,693,c),
(437,704,l),
(427,747,o),
(392,810,o),
(300,810,cs),
(180,810,o),
(147,704,o),
(150,607,cs),
(152,546,o),
(169,506,o),
(179,491,c)
);
},
{
closed = 1;
nodes = (
(351,329,l),
(361,322,o),
(378,295,o),
(382,285,cs),
(388,270,o),
(395,242,o),
(395,211,cs),
(395,159,o),
(385,40,o),
(300,40,cs),
(265,40,o),
(225,66,o),
(217,115,c),
(162,103,l),
(175,52,o),
(220,-10,o),
(300,-10,cs),
(420,-10,o),
(455,114,o),
(455,211,cs),
(455,288,o),
(434,316,o),
(407,358,c)
);
}
);
width = 600;
},
{
associatedMasterId = m002;
layerId = "8585D2E2-F666-4CEA-A04D-3CC2DC47E013";
name = "8. Aug 23, 16:37";
shapes = (
{
closed = 0;
nodes = (
(454,600,l),
(454,685,o),
(420,810,o),
(300,810,cs),
(180,810,o),
(145,672,o),
(145,597,cs),
(145,477,o),
(218,423,o),
(300,400,cs),
(385,376,o),
(454,328,o),
(454,208,cs),
(454,133,o),
(430,-10,o),
(300,-10,c),
(170,-10,o),
(150,123,o),
(150,208,c)
);
}
);
width = 600;
},
{
associatedMasterId = m002;
layerId = "47EBC81E-0308-4E3B-907B-E30CD88F1F0D";
name = "8. Aug 23, 16:49";
shapes = (
{
closed = 1;
nodes = (
(155,123,o),
(180,-10,o),
(300,-10,cs),
(420,-10,o),
(456,124,o),
(456,221,cs),
(456,361,o),
(384,406,o),
(307,431,cs),
(230,456,o),
(199,492,o),
(199,597,cs),
(199,660,o),
(215,765,o),
(300,765,cs),
(385,765,o),
(393,671,o),
(403,600,c),
(453,612,l),
(443,695,o),
(420,810,o),
(300,810,cs),
(180,810,o),
(149,694,o),
(149,597,cs),
(149,457,o),
(216,407,o),
(293,382,cs),
(369,357,o),
(406,326,o),
(406,221,cs),
(406,169,o),
(385,35,o),
(300,35,cs),
(215,35,o),
(205,152,o),
(195,221,c),
(145,209,l)
);
}
);
width = 600;
},
{
associatedMasterId = m002;
layerId = "3FB6BB3A-9A25-486D-9288-F7F209348817";
name = "20. Mar 24, 18:05";
shapes = (
{
closed = 1;
nodes = (
(152,113,o),
(180,-10,o),
(300,-10,cs),
(420,-10,o),
(455,114,o),
(455,211,cs),
(455,351,o),
(369,390,o),
(312,433,cs),
(272,463,o),
(210,502,o),
(210,607,cs),
(210,670,o),
(215,760,o),
(300,760,cs),
(385,760,o),
(389,681,o),
(399,610,c),
(454,622,l),
(444,705,o),
(420,810,o),
(300,810,cs),
(180,810,o),
(150,704,o),
(150,607,cs),
(150,467,o),
(243,411,o),
(300,368,cs),
(340,338,o),
(395,316,o),
(395,211,cs),
(395,159,o),
(385,40,o),
(300,40,cs),
(215,40,o),
(207,142,o),
(199,211,c),
(144,199,l)
);
}
);
width = 600;
}
);
unicode = 83;
}
{
glyphname = U;
layers = (
{
layerId = m01;
shapes = (
{
closed = 1;
nodes = (
(197,605,l),
(198,728,o),
(200,761,o),
(200,800,c),
(140,800,l),
(140,751,o),
(138,707,o),
(137,586,c)
);
},
{
closed = 1;
nodes = (
(459,691,l),
(460,777,o),
(461,764,o),
(461,800,c),
(401,800,l),
(401,767,o),
(400,770,o),
(398,671,c)
);
},
{
closed = 1;
nodes = (
(199,287,l),
(198,323,o),
(197,345,o),
(197,392,cs),
(197,441,o),
(197,423,o),
(197,465,c),
(137,446,l),
(137,409,o),
(137,424,o),
(137,392,cs),
(137,356,o),
(138,343,o),
(139,312,c)
);
},
{
closed = 1;
nodes = (
(448,185,l),
(456,243,o),
(457,297,o),
(457,392,cs),
(457,456,o),
(458,481,o),
(459,551,c),
(398,531,l),
(398,469,o),
(397,452,o),
(397,392,cs),
(397,306,o),
(397,259,o),
(393,207,c)
);
},
{
closed = 1;
nodes = (
(371,86,l),
(361,76,o),
(356,40,o),
(302,40,cs),
(232,40,o),
(215,108,o),
(208,157,c),
(148,184,l),
(156,77,o),
(191,-10,o),
(303,-10,cs),
(386,-10,o),
(402,35,o),
(420,64,c)
);
}
);
width = 600;
},
{
layerId = m002;
shapes = (
{
closed = 1;
nodes = (
(197,655,l),
(198,778,o),
(200,761,o),
(200,800,c),
(140,800,l),
(140,751,o),
(138,757,o),
(137,636,c)
);
},
{
closed = 1;
nodes = (
(459,741,l),
(460,827,o),
(461,764,o),
(461,800,c),
(401,800,l),
(401,767,o),
(400,820,o),
(398,721,c)
);
},
{
closed = 1;
nodes = (
(197,357,l),
(197,377,o),
(197,385,o),
(197,412,cs),
(197,472,o),
(197,413,o),
(197,465,c),
(137,446,l),
(137,434,o),
(137,455,o),
(137,412,cs),
(137,406,o),
(137,393,o),
(137,382,c)
);
},
{
closed = 1;
nodes = (
(454,253,l),
(457,304,o),
(457,317,o),
(457,392,cs),
(457,456,o),
(458,481,o),
(459,551,c),
(398,531,l),
(398,469,o),
(397,452,o),
(397,392,cs),
(397,326,o),
(397,312,o),
(396,277,c)
);
},
{
closed = 1;
nodes = (
(371,86,l),
(361,76,o),
(356,40,o),
(302,40,cs),
(232,40,o),
(215,108,o),
(208,157,c),
(148,184,l),
(156,77,o),
(191,-10,o),
(303,-10,cs),
(386,-10,o),
(402,35,o),
(420,64,c)
);
}
);
width = 600;
},
{
associatedMasterId = m002;
layerId = "1621A96D-8644-4E5D-AB9D-612FAF35EA3E";
name = "20. Mar 24, 16:03";
shapes = (
{
closed = 1;
nodes = (
(401,800,l),
(401,746,o),
(397,546,o),
(397,392,cs),
(397,124,o),
(382,40,o),
(302,40,cs),
(217,40,o),
(197,118,o),
(197,392,cs),
(197,543,o),
(200,747,o),
(200,800,c),
(140,800,l),
(140,736,o),
(137,529,o),
(137,392,cs),
(137,80,o),
(176,-10,o),
(303,-10,cs),
(424,-10,o),
(457,88,o),
(457,392,cs),
(457,534,o),
(461,735,o),
(461,800,c)
);
}
);
width = 600;
}
);
unicode = 85;
}
{
glyphname = V;
layers = (
{
layerId = m01;
shapes = (
{
closed = 1;
nodes = (
(165,768,l),
(159,800,l),
(99,790,l),
(99,790,l)
);
},
{
closed = 1;
nodes = (
(474,676,l),
(501,790,l),
(441,800,l),
(419,694,l)
);
},
{
closed = 1;
nodes = (
(299,121,l),
(292,82,l),
(286,117,l),
(236,101,l),
(258,0,l),
(323,0,l),
(355,139,l)
);
},
{
closed = 1;
nodes = (
(126,649,l),
(214,216,l),
(264,232,l),
(191,628,l)
);
},
{
closed = 1;
nodes = (
(390,554,l),
(327,251,l),
(384,269,l),
(445,536,l)
);
}
);
width = 600;
},
{
associatedMasterId = m01;
layerId = "2AE8915B-CF85-46A0-A513-7C365E5B6658";
name = "8. Aug 23, 16:57";
shapes = (
{
closed = 1;
nodes = (
(272,0,l),
(327,0,l),
(514,800,l),
(466,800,l)
);
},
{
closed = 1;
nodes = (
(104,800,l),
(272,0,l),
(327,0,l),
(152,800,l)
);
}
);
width = 600;
},
{
layerId = m002;
shapes = (
{
closed = 1;
nodes = (
(164,769,l),
(159,800,l),
(99,790,l),
(99,790,l)
);
},
{
closed = 1;
nodes = (
(474,676,l),
(501,790,l),
(441,800,l),
(419,694,l)
);
},
{
closed = 1;
nodes = (
(299,51,l),
(293,49,l),
(287,47,l),
(251,33,l),
(258,0,l),
(323,0,l),
(338,65,l)
);
},
{
closed = 1;
nodes = (
(144,559,l),
(214,216,l),
(264,232,l),
(209,538,l)
);
},
{
closed = 1;
nodes = (
(370,464,l),
(327,251,l),
(384,269,l),
(425,446,l)
);
}
);
width = 600;
},
{
associatedMasterId = m002;
layerId = "AF084E24-ABAA-4AC8-9669-B627828CFD23";
name = "8. Aug 23, 16:57";
shapes = (
{
closed = 1;
nodes = (
(272,0,l),
(327,0,l),
(514,800,l),
(466,800,l)
);
},
{
closed = 1;
nodes = (
(104,800,l),
(272,0,l),
(327,0,l),
(152,800,l)
);
}
);
width = 600;
},
{
associatedMasterId = m01;
layerId = "8A915224-432F-497C-AFFD-91CFD8BEB25A";
name = "12. Mar 24, 16:22";
shapes = (
{
closed = 1;
nodes = (
(258,0,l),
(323,0,l),
(501,790,l),
(441,800,l),
(292,82,l),
(159,800,l),
(99,790,l)
);
}
);
width = 600;
}
);
unicode = 86;
}
{
glyphname = W;
layers = (
{
layerId = m01;
shapes = (
{
closed = 1;
nodes = (
(186,474,l),
(160,800,l),
(95,790,l),
(129,492,l)
);
},
{
closed = 1;
nodes = (
(353,425,l),
(325,620,l),
(281,620,l),
(256,457,l),
(296,444,l),
(300,469,l),
(305,469,l),
(310,440,l)
);
},
{
closed = 1;
nodes = (
(207,143,l),
(215,144,l),
(249,148,l),
(279,334,l),
(239,347,l),
(213,182,l),
(210,182,l),
(196,363,l),
(141,381,l),
(168,138,l)
);
},
{
closed = 1;
nodes = (
(458,390,l),
(505,790,l),
(440,800,l),
(408,405,l)
);
},
{
closed = 1;
nodes = (
(387,162,l),
(394,163,l),
(432,168,l),
(445,280,l),
(399,295,l),
(390,180,l),
(387,180,l),
(369,306,l),
(326,321,l),
(348,156,l)
);
},
{
closed = 1;
nodes = (
(180,28,l),
(184,0,l),
(226,0,l),
(232,38,l)
);
},
{
closed = 1;
nodes = (
(361,56,l),
(369,0,l),
(412,0,l),
(420,68,l)
);
}
);
width = 600;
},
{
associatedMasterId = m01;
layerId = "A19F257E-3A2F-4FF5-935C-24BCB0032436";
name = "8. Aug 23, 17:51";
shapes = (
{
closed = 1;
nodes = (
(211,82,l),
(108,800,l),
(48,800,l),
(182,0,l),
(237,0,l),
(325,600,l),
(275,600,l)
);
},
{
closed = 1;
nodes = (
(403,81,l),
(325,599,l),
(275,599,l),
(374,0,l),
(429,0,l),
(552,799,l),
(492,799,l)
);
}
);
width = 600;
},
{
layerId = m002;
shapes = (
{
closed = 1;
nodes = (
(176,594,l),
(160,800,l),
(95,790,l),
(115,612,l)
);
},
{
closed = 1;
nodes = (
(335,552,l),
(325,620,l),
(281,620,l),
(274,570,l),
(296,564,l),
(303,562,l),
(303,562,l),
(310,560,l)
);
},
{
closed = 1;
nodes = (
(207,219,l),
(219,221,l),
(261,228,l),
(279,334,l),
(239,347,l),
(219,221,l),
(207,219,l),
(196,363,l),
(141,381,l),
(160,212,l)
);
},
{
closed = 1;
nodes = (
(472,510,l),
(505,790,l),
(440,800,l),
(418,525,l)
);
},
{
closed = 1;
nodes = (
(378,239,l),
(395,241,l),
(441,246,l),
(445,280,l),
(399,295,l),
(394,241,l),
(378,239,l),
(369,306,l),
(326,321,l),
(337,234,l)
);
},
{
closed = 1;
nodes = (
(180,28,l),
(184,0,l),
(226,0,l),
(232,38,l)
);
},
{
closed = 1;
nodes = (
(361,56,l),
(369,0,l),
(412,0,l),
(420,68,l)
);
}
);
width = 600;
},
{
associatedMasterId = m002;
layerId = "5D41823E-A881-48BC-8C4D-40E9AF546B8D";
name = "8. Aug 23, 17:51";
shapes = (
{
closed = 1;
nodes = (
(211,82,l),
(108,800,l),
(48,800,l),
(182,0,l),
(237,0,l),
(325,600,l),
(275,600,l)
);
},
{
closed = 1;
nodes = (
(403,81,l),
(325,599,l),
(275,599,l),
(374,0,l),
(429,0,l),
(552,799,l),
(492,799,l)
);
}
);
width = 600;
},
{
associatedMasterId = m002;
layerId = "B219C336-A49C-4CF6-8163-FF4F6F1FE2DD";
name = "9. Mar 24, 20:00";
shapes = (
{
closed = 1;
nodes = (
(213,182,l),
(210,182,l),
(160,800,l),
(95,790,l),
(184,0,l),
(226,0,l),
(300,469,l),
(305,469,l),
(369,0,l),
(412,0,l),
(505,790,l),
(440,800,l),
(390,180,l),
(387,180,l),
(325,620,l),
(281,620,l)
);
}
);
visible = 1;
width = 600;
},
{
associatedMasterId = m01;
layerId = "D22DE665-8906-4950-8B32-D2B4C7AEDC0A";
name = "26. Mar 24, 13:35";
shapes = (
{
closed = 1;
nodes = (
(186,474,l),
(160,800,l),
(95,790,l),
(129,492,l)
);
},
{
closed = 1;
nodes = (
(353,425,l),
(325,620,l),
(281,620,l),
(256,457,l),
(296,444,l),
(300,469,l),
(305,469,l),
(309,440,l)
);
},
{
closed = 1;
nodes = (
(207,143,l),
(215,144,l),
(249,148,l),
(279,334,l),
(239,347,l),
(213,182,l),
(210,182,l),
(196,363,l),
(141,381,l),
(168,138,l)
);
},
{
closed = 1;
nodes = (
(458,390,l),
(505,790,l),
(440,800,l),
(408,405,l)
);
},
{
closed = 1;
nodes = (
(387,162,l),
(394,163,l),
(432,168,l),
(445,280,l),
(399,295,l),
(390,180,l),
(387,180,l),
(369,306,l),
(326,321,l),
(348,156,l)
);
},
{
closed = 1;
nodes = (
(180,28,l),
(184,0,l),
(226,0,l),
(232,38,l)
);
},
{
closed = 1;
nodes = (
(361,56,l),
(369,0,l),
(412,0,l),
(420,68,l)
);
}
);
width = 600;
},
{
.lastUpdate = 733668090.651;
associatedMasterId = m01;
attr = {
coordinates = (
650
);
};
layerId = "61EEBB56-53F4-494C-A3AB-2D753A6F8745";
name = "26. Mar 24, 15:35";
shapes = (
{
closed = 1;
nodes = (
(181,534,l),
(160,800,l),
(95,790,l),
(122,552,l)
);
},
{
closed = 1;
nodes = (
(344,489,l),
(325,620,l),
(281,620,l),
(265,514,l),
(296,504,l),
(296,504,l),
(310,500,l),
(310,500,l)
);
},
{
closed = 1;
nodes = (
(210,182,l),
(213,182,l),
(255,188,l),
(279,334,l),
(239,347,l),
(213,182,l),
(210,182,l),
(196,363,l),
(141,381,l),
(164,175,l)
);
},
{
closed = 1;
nodes = (
(465,450,l),
(505,790,l),
(440,800,l),
(413,465,l)
);
},
{
closed = 1;
nodes = (
(383,201,l),
(392,202,l),
(437,207,l),
(445,280,l),
(399,295,l),
(392,202,l),
(383,201,l),
(369,306,l),
(326,321,l),
(343,195,l)
);
},
{
closed = 1;
nodes = (
(180,28,l),
(184,0,l),
(226,0,l),
(232,38,l)
);
},
{
closed = 1;
nodes = (
(361,56,l),
(369,0,l),
(412,0,l),
(420,68,l)
);
}
);
width = 600;
},
{
.lastUpdate = 733668090.651;
associatedMasterId = m01;
attr = {
coordinates = (
620
);
};
layerId = "9343F313-582F-4A42-9F1B-8A1D442E89A6";
name = "26. Mar 24, 15:40";
shapes = (
{
closed = 1;
nodes = (
(184,498,l),
(160,800,l),
(95,790,l),
(126,516,l)
);
},
{
closed = 1;
nodes = (
(349,451,l),
(325,620,l),
(281,620,l),
(260,480,l),
(299,467,l),
(300,469,l),
(305,469,l),
(306,465,l)
);
},
{
closed = 1;
nodes = (
(208,159,l),
(214,160,l),
(251,164,l),
(279,334,l),
(239,347,l),
(213,182,l),
(210,182,l),
(196,363,l),
(141,381,l),
(166,153,l)
);
},
{
closed = 1;
nodes = (
(461,414,l),
(505,790,l),
(440,800,l),
(410,429,l)
);
},
{
closed = 1;
nodes = (
(386,178,l),
(390,179,l),
(434,184,l),
(445,280,l),
(399,295,l),
(390,179,l),
(386,178,l),
(369,306,l),
(326,321,l),
(346,172,l)
);
},
{
closed = 1;
nodes = (
(180,28,l),
(184,0,l),
(226,0,l),
(232,38,l)
);
},
{
closed = 1;
nodes = (
(361,56,l),
(369,0,l),
(412,0,l),
(420,68,l)
);
}
);
width = 600;
},
{
.lastUpdate = 733668090.651;
associatedMasterId = m01;
attr = {
coordinates = (
610
);
};
layerId = "2CAB42F0-7431-4339-AF53-636B033A4C3B";
name = "26. Mar 24, 15:49";
shapes = (
{
closed = 1;
nodes = (
(185,486,l),
(160,800,l),
(95,790,l),
(128,504,l)
);
},
{
closed = 1;
nodes = (
(351,438,l),
(325,620,l),
(281,620,l),
(258,469,l),
(298,456,l),
(300,469,l),
(305,469,l),
(307,453,l)
);
},
{
closed = 1;
nodes = (
(208,151,l),
(215,152,l),
(250,156,l),
(279,334,l),
(239,347,l),
(213,182,l),
(210,182,l),
(196,363,l),
(141,381,l),
(167,146,l)
);
},
{
closed = 1;
nodes = (
(460,402,l),
(505,790,l),
(440,800,l),
(409,417,l)
);
},
{
closed = 1;
nodes = (
(387,170,l),
(392,171,l),
(433,176,l),
(445,280,l),
(399,295,l),
(390,180,l),
(387,179,l),
(369,306,l),
(326,321,l),
(347,164,l)
);
},
{
closed = 1;
nodes = (
(180,28,l),
(184,0,l),
(226,0,l),
(232,38,l)
);
},
{
closed = 1;
nodes = (
(361,56,l),
(369,0,l),
(412,0,l),
(420,68,l)
);
}
);
width = 600;
}
);
unicode = 87;
}
{
glyphname = Y;
layers = (
{
layerId = m01;
shapes = (
{
closed = 1;
nodes = (
(223,598,l),
(146,795,l),
(86,785,l),
(176,557,l)
);
},
{
closed = 1;
nodes = (
(318,265,l),
(318,345,l),
(508,785,l),
(448,796,l),
(289,427,l),
(270,478,l),
(223,437,l),
(258,345,l),
(258,286,l)
);
},
{
closed = 1;
nodes = (
(258,166,l),
(258,0,l),
(318,0,l),
(318,145,l)
);
}
);
width = 600;
},
{
layerId = m002;
shapes = (
{
closed = 1;
nodes = (
(192,680,l),
(146,795,l),
(86,785,l),
(145,639,l)
);
},
{
closed = 1;
nodes = (
(318,265,l),
(318,345,l),
(455,661,l),
(405,693,l),
(289,427,l),
(270,478,l),
(223,437,l),
(258,345,l),
(258,286,l)
);
},
{
closed = 1;
nodes = (
(258,66,l),
(258,0,l),
(318,0,l),
(318,45,l)
);
}
);
width = 600;
},
{
associatedMasterId = m01;
layerId = "399AA7CB-B861-45E2-B0E6-F862B06800E7";
name = "12. Mar 24, 11:42";
shapes = (
{
closed = 1;
nodes = (
(289,427,l),
(146,795,l),
(86,785,l),
(258,345,l),
(318,345,l),
(508,785,l),
(448,795,l)
);
},
{
closed = 1;
nodes = (
(258,0,l),
(318,0,l),
(318,345,l),
(258,345,l)
);
}
);
visible = 1;
width = 600;
},
{
associatedMasterId = m002;
layerId = "376E65DB-E2EA-4D5C-A9B2-7508BDEB602C";
name = "12. Mar 24, 11:44";
shapes = (
{
closed = 1;
nodes = (
(289,427,l),
(146,795,l),
(86,785,l),
(258,345,l),
(258,0,l),
(318,0,l),
(318,345,l),
(508,785,l),
(448,795,l)
);
}
);
width = 600;
}
);
unicode = 89;
}
{
glyphname = Z;
layers = (
{
layerId = m01;
shapes = (
{
closed = 1;
nodes = (
(421,677,l),
(450,750,l),
(450,800,l),
(110,800,l),
(100,750,l),
(391,750,l),
(351,650,l)
);
},
{
closed = 1;
nodes = (
(235,211,l),
(371,550,l),
(300,524,l),
(201,276,l)
);
},
{
closed = 1;
nodes = (
(152,153,l),
(110,50,l),
(110,0,l),
(450,0,l),
(460,50,l),
(171,50,l),
(189,93,l)
);
}
);
width = 600;
},
{
layerId = m002;
shapes = (
{
closed = 1;
nodes = (
(421,677,l),
(450,750,l),
(450,800,l),
(235,800,l),
(170,750,l),
(391,750,l),
(351,650,l)
);
},
{
closed = 1;
nodes = (
(246,238,l),
(331,453,l),
(260,427,l),
(212,303,l)
);
},
{
closed = 1;
nodes = (
(134,110,l),
(110,50,l),
(110,0,l),
(312,0,l),
(370,50,l),
(171,50,l),
(171,50,l)
);
}
);
width = 600;
},
{
associatedMasterId = m002;
layerId = "737F5600-66A4-495C-9000-A6A56962C8CD";
name = "9. Mar 24, 20:06";
shapes = (
{
closed = 1;
nodes = (
(110,50,l),
(110,0,l),
(450,0,l),
(460,50,l),
(171,50,l),
(450,750,l),
(450,800,l),
(110,800,l),
(100,750,l),
(391,750,l)
);
}
);
visible = 1;
width = 600;
}
);
unicode = 90;
}
{
glyphname = a;
layers = (
{
layerId = m01;
shapes = (
{
closed = 1;
nodes = (
(370,399,l),
(319,600,l),
(266,600,l),
(241,492,l),
(284,462,l),
(293,509,l),
(306,443,l)
);
},
{
closed = 1;
nodes = (
(421,203,l),
(397,293,l),
(333,337,l),
(352,252,l),
(241,252,l),
(265,372,l),
(222,402,l),
(153,106,l),
(218,131,l),
(231,202,l),
(363,202,l),
(367,183,l)
);
},
{
closed = 1;
nodes = (
(136,26,l),
(131,10,l),
(191,0,l),
(201,51,l)
);
},
{
closed = 1;
nodes = (
(386,105,l),
(409,0,l),
(469,10,l),
(440,125,l)
);
}
);
width = 600;
},
{
layerId = m002;
shapes = (
{
closed = 1;
nodes = (
(367,413,l),
(319,600,l),
(266,600,l),
(243,502,l),
(286,472,l),
(293,509,l),
(302,460,l)
);
},
{
closed = 1;
nodes = (
(421,203,l),
(413,231,l),
(347,275,l),
(352,252,l),
(241,252,l),
(252,312,l),
(208,342,l),
(153,106,l),
(218,131,l),
(231,202,l),
(363,202,l),
(367,183,l)
);
},
{
closed = 1;
nodes = (
(131,10,l),
(131,10,l),
(191,0,l),
(191,0,l)
);
},
{
closed = 1;
nodes = (
(402,37,l),
(409,0,l),
(469,10,l),
(456,57,l)
);
}
);
width = 600;
}
);
unicode = 97;
}
{
glyphname = b;
layers = (
{
layerId = m01;
shapes = (
{
closed = 1;
nodes = (
(423,452,l),
(423,538,o),
(373,600,o),
(267,600,cs),
(155,600,l),
(155,550,l),
(195,550,l),
(255,525,l),
(255,550,l),
(277,550,ls),
(322,550,o),
(355,516,o),
(360,483,c)
);
},
{
closed = 1;
nodes = (
(449,216,l),
(437,283,o),
(383,315,o),
(352,326,c),
(373,339,o),
(394,355,o),
(408,381,c),
(355,403,l),
(341,368,o),
(310,349,o),
(269,349,cs),
(255,349,l),
(255,445,l),
(195,469,l),
(195,303,l),
(255,283,l),
(255,299,l),
(269,299,ls),
(327,299,o),
(361,276,o),
(377,245,c)
);
},
{
closed = 1;
nodes = (
);
},
{
closed = 1;
nodes = (
(395,158,l),
(395,92,o),
(364,50,o),
(292,50,cs),
(255,50,l),
(255,203,l),
(195,223,l),
(195,50,l),
(155,50,l),
(155,0,l),
(294,0,ls),
(415,0,o),
(449,63,o),
(453,137,c)
);
}
);
width = 600;
},
{
layerId = m002;
shapes = (
{
closed = 1;
nodes = (
(423,452,l),
(423,538,o),
(373,600,o),
(267,600,cs),
(155,600,l),
(155,550,l),
(195,550,l),
(255,525,l),
(255,550,l),
(277,550,ls),
(322,550,o),
(355,516,o),
(360,483,c)
);
},
{
closed = 1;
nodes = (
(449,216,l),
(437,283,o),
(383,315,o),
(352,326,c),
(358,330,o),
(361,331,o),
(365,334,c),
(310,357,l),
(297,350,o),
(280,349,o),
(269,349,cs),
(255,349,l),
(255,375,l),
(195,399,l),
(195,303,l),
(255,283,l),
(255,299,l),
(269,299,ls),
(327,299,o),
(361,276,o),
(377,245,c)
);
},
{
closed = 1;
nodes = (
(371,80,l),
(362,65,o),
(334,50,o),
(292,50,cs),
(255,50,l),
(255,123,l),
(195,143,l),
(195,50,l),
(155,50,l),
(155,0,l),
(294,0,ls),
(385,0,o),
(419,35,o),
(431,57,c)
);
}
);
width = 600;
},
{
associatedMasterId = m01;
layerId = "62FF2CE4-1FA7-4B86-96A6-4E26E5FF0171";
name = "1. Apr 24, 14:24";
shapes = (
{
closed = 1;
nodes = (
(195,600,l),
(195,50,l),
(155,50,l),
(155,0,l),
(294,0,ls),
(391,0,o),
(455,36,o),
(455,164,cs),
(455,277,o),
(387,314,o),
(352,326,c),
(387,348,o),
(423,378,o),
(423,452,cs),
(423,538,o),
(373,600,o),
(267,600,cs)
);
},
{
closed = 1;
nodes = (
(255,550,l),
(277,550,ls),
(322,550,o),
(363,521,o),
(363,451,cs),
(363,385,o),
(326,349,o),
(269,349,cs),
(255,349,l)
);
},
{
closed = 1;
nodes = (
(255,50,l),
(255,299,l),
(269,299,ls),
(343,299,o),
(395,262,o),
(395,164,cs),
(395,88,o),
(364,50,o),
(292,50,cs)
);
},
{
closed = 1;
nodes = (
(155,550,l),
(207,550,l),
(207,600,l),
(155,600,l)
);
}
);
width = 600;
},
{
associatedMasterId = m002;
layerId = "E410C352-3133-4BCF-B5FF-B6321D64A27F";
name = "1. Apr 24, 14:30";
shapes = (
{
closed = 1;
nodes = (
(155,600,l),
(155,550,l),
(195,550,l),
(195,50,l),
(155,50,l),
(155,0,l),
(294,0,ls),
(391,0,o),
(455,36,o),
(455,164,cs),
(455,277,o),
(387,314,o),
(352,326,c),
(387,348,o),
(423,378,o),
(423,452,cs),
(423,538,o),
(373,600,o),
(267,600,cs)
);
},
{
closed = 1;
nodes = (
(255,550,l),
(277,550,ls),
(322,550,o),
(363,521,o),
(363,451,cs),
(363,385,o),
(326,349,o),
(269,349,cs),
(255,349,l)
);
},
{
closed = 1;
nodes = (
(255,50,l),
(255,299,l),
(269,299,ls),
(343,299,o),
(395,262,o),
(395,164,cs),
(395,88,o),
(364,50,o),
(292,50,cs)
);
}
);
visible = 1;
width = 600;
}
);
note = "Lower bowl is still weird";
unicode = 98;
}
{
glyphname = c;
layers = (
{
layerId = m01;
shapes = (
{
closed = 1;
nodes = (
(238,443,l),
(245,517,o),
(255,560,o),
(305,560,cs),
(345,560,o),
(362,542,o),
(371,469,c),
(426,481,l),
(411,584,o),
(366,610,o),
(305,610,cs),
(227,610,o),
(197,551,o),
(185,477,c)
);
},
{
closed = 1;
nodes = (
(238,170,l),
(235,197,o),
(234,271,o),
(234,284,c),
(234,292,o),
(234,349,o),
(234,364,c),
(176,397,l),
(176,386,o),
(174,324,o),
(174,314,cs),
(174,277,o),
(176,190,o),
(184,141,c)
);
},
{
closed = 1;
nodes = (
(204,61,l),
(219,26,o),
(245,-10,o),
(303,-10,cs),
(364,-10,o),
(413,16,o),
(427,136,c),
(372,148,l),
(362,57,o),
(352,40,o),
(303,40,cs),
(263,40,o),
(256,71,o),
(249,90,c)
);
}
);
width = 600;
},
{
layerId = m002;
shapes = (
{
closed = 1;
nodes = (
(245,493,l),
(252,527,o),
(259,560,o),
(305,560,cs),
(345,560,o),
(362,542,o),
(371,469,c),
(426,481,l),
(411,584,o),
(366,610,o),
(305,610,cs),
(232,610,o),
(210,561,o),
(198,527,c)
);
},
{
closed = 1;
nodes = (
(235,258,l),
(234,268,o),
(234,271,o),
(234,284,c),
(234,292,o),
(234,319,o),
(234,334,c),
(176,367,l),
(176,356,o),
(174,324,o),
(174,314,cs),
(174,277,o),
(174,258,o),
(176,229,c)
);
},
{
closed = 1;
nodes = (
(204,61,l),
(219,26,o),
(245,-10,o),
(303,-10,cs),
(364,-10,o),
(413,16,o),
(427,136,c),
(372,148,l),
(362,57,o),
(352,40,o),
(303,40,cs),
(263,40,o),
(256,71,o),
(249,90,c)
);
}
);
width = 600;
},
{
associatedMasterId = m01;
layerId = "9BDDEB92-72A5-46CF-8529-557BC67FF9D1";
name = "1. Apr 24, 10:07";
shapes = (
{
closed = 1;
nodes = (
(372,148,l),
(362,57,o),
(352,40,o),
(303,40,cs),
(247,40,o),
(234,99,o),
(234,314,c),
(234,514,o),
(250,560,o),
(305,560,cs),
(345,560,o),
(362,542,o),
(371,469,c),
(426,481,l),
(411,584,o),
(366,610,o),
(305,610,cs),
(215,610,o),
(174,541,o),
(174,314,cs),
(174,70,o),
(213,-10,o),
(303,-10,cs),
(364,-10,o),
(413,16,o),
(427,136,c)
);
}
);
visible = 1;
width = 600;
}
);
unicode = 99;
}
{
glyphname = d;
layers = (
{
layerId = m01;
shapes = (
{
closed = 1;
nodes = (
(439,407,l),
(427,534,o),
(389,600,o),
(296,600,cs),
(167,600,l),
(167,550,l),
(191,550,l),
(191,512,l),
(251,487,l),
(251,550,l),
(299,550,ls),
(346,550,o),
(370,499,o),
(376,432,c)
);
},
{
closed = 1;
nodes = (
(251,189,l),
(251,397,l),
(191,422,l),
(191,154,l)
);
},
{
closed = 1;
nodes = (
(191,64,l),
(191,50,l),
(167,50,l),
(167,0,l),
(300,0,ls),
(395,0,o),
(443,77,o),
(443,305,cs),
(443,309,o),
(443,313,o),
(443,317,c),
(383,342,l),
(383,331,o),
(383,318,o),
(383,305,cs),
(383,104,o),
(349,50,o),
(299,50,cs),
(251,50,l),
(251,99,l)
);
}
);
width = 600;
},
{
layerId = m002;
shapes = (
{
closed = 1;
nodes = (
(439,407,l),
(427,534,o),
(389,600,o),
(296,600,cs),
(167,600,l),
(167,550,l),
(191,550,l),
(191,512,l),
(251,487,l),
(251,550,l),
(299,550,ls),
(346,550,o),
(370,499,o),
(376,432,c)
);
},
{
closed = 1;
nodes = (
(251,279,l),
(251,317,l),
(191,342,l),
(191,244,l)
);
},
{
closed = 1;
nodes = (
(191,64,l),
(191,50,l),
(167,50,l),
(167,0,l),
(300,0,ls),
(395,0,o),
(431,85,o),
(439,195,cs),
(440,209,o),
(442,227,o),
(443,237,c),
(383,262,l),
(382,255,o),
(380,218,o),
(379,205,cs),
(372,111,o),
(349,50,o),
(299,50,cs),
(251,50,l),
(251,99,l)
);
}
);
width = 600;
},
{
associatedMasterId = m01;
layerId = "042631BB-72A7-4D9B-AD44-6918FB6B7F12";
name = "1. Apr 24, 10:23";
shapes = (
{
closed = 1;
nodes = (
(191,0,l),
(251,0,l),
(251,600,l),
(191,600,l)
);
},
{
closed = 1;
nodes = (
(167,0,l),
(300,0,l),
(395,0,o),
(443,77,o),
(443,305,cs),
(443,538,o),
(391,600,o),
(296,600,cs),
(251,600,o),
(167,600,o),
(167,600,c),
(167,550,l),
(299,550,l),
(349,550,o),
(383,504,o),
(383,305,cs),
(383,104,o),
(349,50,o),
(299,50,c),
(167,50,l)
);
}
);
width = 600;
},
{
associatedMasterId = m01;
layerId = "47DF1692-FBA2-4401-A376-DD9B0C30148A";
name = "1. Apr 24, 10:33";
shapes = (
{
closed = 1;
nodes = (
(167,600,l),
(167,550,l),
(191,550,l),
(191,50,l),
(167,50,l),
(167,0,l),
(300,0,ls),
(395,0,o),
(443,77,o),
(443,305,cs),
(443,538,o),
(391,600,o),
(296,600,cs)
);
},
{
closed = 1;
nodes = (
(251,550,l),
(299,550,ls),
(349,550,o),
(383,504,o),
(383,305,cs),
(383,104,o),
(349,50,o),
(299,50,cs),
(251,50,l)
);
}
);
width = 600;
}
);
unicode = 100;
}
{
color = 3;
glyphname = e;
layers = (
{
layerId = m01;
shapes = (
{
closed = 1;
nodes = (
(239,497,l),
(239,550,l),
(412,550,l),
(412,600,l),
(179,600,l),
(179,522,l)
);
},
{
closed = 1;
nodes = (
(239,191,l),
(239,285,l),
(382,285,l),
(382,335,l),
(239,335,l),
(239,397,l),
(179,422,l),
(179,171,l)
);
},
{
closed = 1;
nodes = (
(179,81,l),
(179,0,l),
(420,0,l),
(420,50,l),
(239,50,l),
(239,101,l)
);
}
);
width = 600;
},
{
layerId = m002;
shapes = (
{
closed = 1;
nodes = (
(239,517,l),
(239,550,l),
(412,550,l),
(358,600,l),
(179,600,l),
(179,542,l)
);
},
{
closed = 1;
nodes = (
(239,261,l),
(239,285,l),
(343,285,l),
(382,335,l),
(239,335,l),
(239,357,l),
(179,382,l),
(179,241,l)
);
},
{
closed = 1;
nodes = (
(179,81,l),
(179,0,l),
(420,0,l),
(375,49,l),
(239,50,l),
(239,101,l)
);
}
);
width = 600;
},
{
associatedMasterId = m002;
layerId = "C6223564-D206-412F-B59C-868379DFD460";
name = "26. Mar 24, 16:33";
shapes = (
{
closed = 1;
nodes = (
(179,0,l),
(239,0,l),
(239,600,l),
(179,600,l)
);
},
{
closed = 1;
nodes = (
(210,550,l),
(412,550,l),
(412,600,l),
(210,600,l)
);
},
{
closed = 1;
nodes = (
(210,0,l),
(420,0,l),
(420,50,l),
(210,50,l)
);
},
{
closed = 1;
nodes = (
(210,285,l),
(382,285,l),
(382,335,l),
(210,335,l)
);
}
);
width = 600;
},
{
associatedMasterId = m01;
layerId = "FD771760-5B22-47CE-B19F-0A0EFBF54934";
name = "26. Mar 24, 16:33";
shapes = (
{
closed = 1;
nodes = (
(179,0,l),
(420,0,l),
(420,50,l),
(239,50,l),
(239,285,l),
(382,285,l),
(382,335,l),
(239,335,l),
(239,550,l),
(412,550,l),
(412,600,l),
(179,600,l)
);
}
);
width = 600;
}
);
unicode = 101;
}
{
color = 3;
glyphname = f;
layers = (
{
layerId = m01;
shapes = (
{
closed = 1;
nodes = (
(236,530,l),
(236,550,l),
(422,550,l),
(422,600,l),
(176,600,l),
(176,510,l)
);
},
{
closed = 1;
nodes = (
(236,309,l),
(236,334,l),
(384,334,l),
(384,386,l),
(236,386,l),
(236,430,l),
(176,410,l),
(176,289,l)
);
},
{
closed = 1;
nodes = (
(176,199,l),
(176,0,l),
(236,0,l),
(236,219,l)
);
}
);
width = 600;
},
{
layerId = m002;
shapes = (
{
closed = 1;
nodes = (
(236,550,l),
(236,550,l),
(422,550,l),
(384,600,l),
(176,600,l),
(176,530,l)
);
},
{
closed = 1;
nodes = (
(236,309,l),
(236,334,l),
(384,334,l),
(341,386,l),
(236,386,l),
(236,386,l),
(176,366,l),
(176,289,l)
);
},
{
closed = 1;
nodes = (
(176,119,l),
(176,0,l),
(236,0,l),
(236,139,l)
);
}
);
width = 600;
},
{
associatedMasterId = m01;
layerId = "C975136F-3024-4669-812C-3583902781D7";
name = "26. Mar 24, 16:33";
shapes = (
{
closed = 1;
nodes = (
(176,0,l),
(236,0,l),
(236,600,l),
(176,600,l)
);
},
{
closed = 1;
nodes = (
(182,550,l),
(422,550,l),
(422,600,l),
(182,600,l)
);
},
{
closed = 1;
nodes = (
(204,334,l),
(384,334,l),
(384,386,l),
(204,386,l)
);
}
);
width = 600;
},
{
associatedMasterId = m002;
layerId = "1B58D14A-EBAB-4C40-99CF-3EA38A897541";
name = "26. Mar 24, 16:40";
shapes = (
{
closed = 1;
nodes = (
(176,0,l),
(236,0,l),
(236,334,l),
(384,334,l),
(384,386,l),
(236,386,l),
(236,550,l),
(422,550,l),
(422,600,l),
(176,600,l)
);
}
);
width = 600;
}
);
unicode = 102;
}
{
glyphname = g;
layers = (
{
layerId = m01;
shapes = (
{
closed = 1;
nodes = (
(246,508,l),
(250,521,o),
(255,560,o),
(305,560,cs),
(353,560,o),
(362,543,o),
(371,470,c),
(426,482,l),
(411,585,o),
(366,610,o),
(305,610,cs),
(228,610,o),
(199,551,o),
(189,495,c)
);
},
{
closed = 1;
nodes = (
(421,149,l),
(421,290,l),
(309,290,l),
(309,240,l),
(366,240,l),
(366,175,l)
);
},
{
closed = 1;
nodes = (
(366,88,l),
(366,88,l),
(358,66,o),
(350,40,o),
(305,40,cs),
(251,40,o),
(243,95,o),
(241,142,c),
(180,172,l),
(190,66,o),
(222,-10,o),
(305,-10,cs),
(366,-10,o),
(401,31,o),
(413,65,c),
(413,65,l)
);
},
{
closed = 1;
nodes = (
(177,405,l),
(175,378,o),
(174,348,o),
(174,314,cs),
(174,296,o),
(174,279,o),
(175,262,c),
(236,232,l),
(235,256,o),
(235,284,o),
(235,314,cs),
(235,355,o),
(235,389,o),
(236,418,c)
);
}
);
width = 600;
},
{
associatedMasterId = m01;
layerId = "B2D5F78F-2A4C-440D-9BCC-A633FBCF54F4";
name = "30. Aug 23, 14:10";
shapes = (
{
closed = 1;
nodes = (
(312,107,l),
(303,67,o),
(296,50,o),
(251,50,cs),
(188,50,o),
(181,99,o),
(181,304,cs),
(181,504,o),
(188,550,o),
(251,550,cs),
(299,550,o),
(308,533,o),
(317,460,c),
(372,472,l),
(357,575,o),
(312,600,o),
(251,600,cs),
(161,600,o),
(120,531,o),
(120,304,cs),
(120,70,o),
(161,0,o),
(251,0,cs),
(312,0,o),
(355,36,o),
(367,107,c)
);
},
{
closed = 1;
nodes = (
(312,107,l),
(367,107,l),
(363,290,l),
(312,290,l)
);
},
{
closed = 1;
nodes = (
(363,240,l),
(363,290,l),
(255,290,l),
(255,240,l)
);
}
);
width = 600;
},
{
layerId = m002;
shapes = (
{
closed = 1;
nodes = (
(246,508,l),
(250,521,o),
(255,560,o),
(305,560,cs),
(353,560,o),
(362,543,o),
(371,470,c),
(426,482,l),
(411,585,o),
(366,610,o),
(305,610,cs),
(228,610,o),
(199,551,o),
(189,495,c)
);
},
{
closed = 1;
nodes = (
(421,149,l),
(421,290,l),
(309,290,l),
(309,240,l),
(366,240,l),
(366,175,l)
);
},
{
closed = 1;
nodes = (
(347,52,l),
(347,52,l),
(334,43,o),
(318,40,o),
(305,40,cs),
(271,40,o),
(253,65,o),
(251,82,c),
(190,112,l),
(200,40,o),
(242,-10,o),
(305,-10,cs),
(340,-10,o),
(369,2,o),
(394,29,c),
(394,29,l)
);
},
{
closed = 1;
nodes = (
(174,335,l),
(174,327,o),
(174,322,o),
(174,314,cs),
(174,296,o),
(174,279,o),
(175,262,c),
(236,232,l),
(235,256,o),
(235,284,o),
(235,314,cs),
(235,325,o),
(235,335,o),
(235,348,c)
);
}
);
width = 600;
},
{
associatedMasterId = m002;
layerId = "EEC2E6F4-1616-4201-8AC5-8CE2ED8266E9";
name = "30. Aug 23, 14:10";
shapes = (
{
closed = 1;
nodes = (
(312,107,l),
(303,67,o),
(296,50,o),
(251,50,cs),
(188,50,o),
(181,99,o),
(181,304,cs),
(181,504,o),
(188,550,o),
(251,550,cs),
(299,550,o),
(308,533,o),
(317,460,c),
(372,472,l),
(357,575,o),
(312,600,o),
(251,600,cs),
(161,600,o),
(120,531,o),
(120,304,cs),
(120,70,o),
(161,0,o),
(251,0,cs),
(312,0,o),
(355,36,o),
(367,107,c)
);
},
{
closed = 1;
nodes = (
(312,107,l),
(367,107,l),
(363,290,l),
(312,290,l)
);
},
{
closed = 1;
nodes = (
(363,240,l),
(363,290,l),
(255,290,l),
(255,240,l)
);
}
);
width = 600;
},
{
associatedMasterId = m01;
layerId = "2D541F0C-F801-4E11-8FA1-D99253C8ECB9";
name = "1. Apr 24, 10:41";
shapes = (
{
closed = 1;
nodes = (
(421,290,l),
(309,290,l),
(309,240,l),
(366,240,l),
(366,97,l),
(359,60,o),
(350,40,o),
(305,40,cs),
(242,40,o),
(235,99,o),
(235,314,cs),
(235,514,o),
(242,560,o),
(305,560,cs),
(353,560,o),
(362,543,o),
(371,470,c),
(426,482,l),
(411,585,o),
(366,610,o),
(305,610,cs),
(215,610,o),
(174,541,o),
(174,314,cs),
(174,70,o),
(215,-10,o),
(305,-10,cs),
(366,-10,o),
(409,26,o),
(421,97,c)
);
}
);
width = 600;
}
);
unicode = 103;
}
{
glyphname = h;
layers = (
{
layerId = m01;
shapes = (
{
closed = 1;
nodes = (
(211,560,l),
(211,600,l),
(151,600,l),
(151,587,l)
);
},
{
closed = 1;
nodes = (
(429,462,l),
(429,600,l),
(369,600,l),
(369,489,l)
);
},
{
closed = 1;
nodes = (
(211,140,l),
(211,281,l),
(369,281,l),
(369,212,l),
(429,240,l),
(429,362,l),
(369,389,l),
(369,331,l),
(211,331,l),
(211,460,l),
(151,487,l),
(151,112,l)
);
},
{
closed = 1;
nodes = (
(151,22,l),
(151,0,l),
(211,0,l),
(211,50,l)
);
},
{
closed = 1;
nodes = (
(369,122,l),
(369,0,l),
(429,0,l),
(429,150,l)
);
}
);
width = 600;
},
{
layerId = m002;
shapes = (
{
closed = 1;
nodes = (
(211,560,l),
(211,600,l),
(151,600,l),
(151,587,l)
);
},
{
closed = 1;
nodes = (
(429,462,l),
(429,600,l),
(369,600,l),
(369,489,l)
);
},
{
closed = 1;
nodes = (
(211,180,l),
(211,281,l),
(369,281,l),
(369,252,l),
(429,280,l),
(429,304,l),
(369,331,l),
(369,331,l),
(211,331,l),
(211,400,l),
(151,427,l),
(151,152,l)
);
},
{
closed = 1;
nodes = (
(151,0,l),
(151,0,l),
(211,0,l),
(211,30,l)
);
},
{
closed = 1;
nodes = (
(369,102,l),
(369,0,l),
(429,0,l),
(429,130,l)
);
}
);
width = 600;
}
);
unicode = 104;
}
{
color = 3;
glyphname = i;
layers = (
{
layerId = m01;
shapes = (
{
closed = 1;
nodes = (
(330,502,l),
(330,550,l),
(412,550,l),
(412,600,l),
(188,600,l),
(188,550,l),
(270,550,l),
(270,487,l)
);
},
{
closed = 1;
nodes = (
(330,186,l),
(330,382,l),
(270,367,l),
(270,171,l)
);
},
{
closed = 1;
nodes = (
(270,71,l),
(270,50,l),
(188,50,l),
(188,0,l),
(412,0,l),
(412,50,l),
(330,50,l),
(330,86,l)
);
}
);
width = 600;
},
{
associatedMasterId = m01;
layerId = "66E2D0AB-8017-48D2-9577-ED4954DD3375";
name = "30. Aug 23, 13:56";
shapes = (
{
closed = 1;
nodes = (
(220,0,l),
(280,0,l),
(280,600,l),
(220,600,l)
);
},
{
closed = 1;
nodes = (
(138,550,l),
(362,550,l),
(362,600,l),
(138,600,l)
);
},
{
closed = 1;
nodes = (
(138,0,l),
(362,0,l),
(362,50,l),
(138,50,l)
);
}
);
width = 600;
},
{
layerId = m002;
shapes = (
{
closed = 1;
nodes = (
(330,532,l),
(330,550,l),
(412,550,l),
(370,600,l),
(188,600,l),
(236,550,l),
(270,550,l),
(270,517,l)
);
},
{
closed = 1;
nodes = (
(330,256,l),
(330,362,l),
(270,347,l),
(270,241,l)
);
},
{
closed = 1;
nodes = (
(270,61,l),
(270,50,l),
(188,50,l),
(247,0,l),
(366,0,l),
(412,50,l),
(330,50,l),
(330,76,l)
);
}
);
width = 600;
},
{
associatedMasterId = m002;
layerId = "D0B35C8A-6D78-4D35-B69A-35F7054F2289";
name = "30. Aug 23, 13:56";
shapes = (
{
closed = 1;
nodes = (
(220,0,l),
(280,0,l),
(280,600,l),
(220,600,l)
);
},
{
closed = 1;
nodes = (
(138,550,l),
(362,550,l),
(362,600,l),
(138,600,l)
);
},
{
closed = 1;
nodes = (
(138,0,l),
(362,0,l),
(362,50,l),
(138,50,l)
);
}
);
width = 600;
},
{
associatedMasterId = m01;
layerId = "0D918729-C85E-4CF4-953A-25E57FF9CCAD";
name = "26. Mar 24, 16:03";
shapes = (
{
closed = 1;
nodes = (
(188,600,l),
(188,550,l),
(270,550,l),
(270,50,l),
(188,50,l),
(188,0,l),
(412,0,l),
(412,50,l),
(330,50,l),
(330,550,l),
(412,550,l),
(412,600,l)
);
}
);
width = 600;
}
);
unicode = 105;
}
{
glyphname = j;
layers = (
{
layerId = m01;
shapes = (
{
closed = 1;
nodes = (
(387,490,l),
(386,550,l),
(460,550,l),
(460,600,l),
(274,600,l),
(274,550,l),
(325,550,l),
(326,519,l)
);
},
{
closed = 1;
nodes = (
(382,170,l),
(387,210,o),
(387,262,o),
(387,283,cs),
(387,385,l),
(326,415,l),
(327,283,ls),
(327,244,o),
(326,193,o),
(324,156,c)
);
},
{
closed = 1;
nodes = (
(300,61,l),
(289,49,o),
(282,40,o),
(254,40,cs),
(190,40,o),
(185,103,o),
(181,193,c),
(126,181,l),
(134,60,o),
(165,-10,o),
(254,-10,cs),
(310,-10,o),
(343,17,o),
(364,76,c)
);
}
);
width = 600;
},
{
associatedMasterId = m01;
layerId = "DF1AEC02-7601-4392-B100-430844A194FC";
name = "30. Aug 23, 14:26";
shapes = (
{
closed = 1;
nodes = (
(357,283,ls),
(358,110,o),
(346,50,o),
(284,50,cs),
(220,50,o),
(214,113,o),
(210,203,c),
(156,191,l),
(164,70,o),
(195,0,o),
(284,0,cs),
(371,0,o),
(415,65,o),
(417,283,cs),
(416,595,l),
(355,595,l)
);
},
{
closed = 1;
nodes = (
(304,550,l),
(490,550,l),
(490,600,l),
(304,600,l)
);
}
);
width = 600;
},
{
layerId = m002;
shapes = (
{
closed = 1;
nodes = (
(387,490,l),
(386,550,l),
(460,550,l),
(404,600,l),
(274,600,l),
(325,550,l),
(325,550,l),
(326,519,l)
);
},
{
closed = 1;
nodes = (
(387,260,l),
(387,266,o),
(387,272,o),
(387,283,cs),
(387,305,l),
(326,335,l),
(327,283,ls),
(327,274,o),
(327,263,o),
(327,246,c)
);
},
{
closed = 1;
nodes = (
(300,61,l),
(289,49,o),
(282,40,o),
(254,40,cs),
(204,40,o),
(195,78,o),
(190,102,c),
(140,90,l),
(148,56,o),
(170,-10,o),
(254,-10,cs),
(310,-10,o),
(343,17,o),
(364,76,c)
);
}
);
width = 600;
},
{
associatedMasterId = m002;
layerId = "61193242-A8E1-4B0C-BCC6-06889F133EC2";
name = "30. Aug 23, 14:26";
shapes = (
{
closed = 1;
nodes = (
(357,283,ls),
(358,110,o),
(346,50,o),
(284,50,cs),
(220,50,o),
(214,113,o),
(210,203,c),
(156,191,l),
(164,70,o),
(195,0,o),
(284,0,cs),
(371,0,o),
(415,65,o),
(417,283,cs),
(416,595,l),
(355,595,l)
);
},
{
closed = 1;
nodes = (
(304,550,l),
(490,550,l),
(490,600,l),
(304,600,l)
);
}
);
width = 600;
},
{
associatedMasterId = m01;
layerId = "1DE34144-BC48-4DD0-B515-E3366075E184";
name = "1. Apr 24, 13:39";
shapes = (
{
closed = 1;
nodes = (
(274,550,l),
(325,550,l),
(327,283,ls),
(328,100,o),
(316,40,o),
(254,40,cs),
(190,40,o),
(185,103,o),
(181,193,c),
(126,181,l),
(134,60,o),
(165,-10,o),
(254,-10,cs),
(341,-10,o),
(388,55,o),
(387,283,cs),
(386,550,l),
(460,550,l),
(460,600,l),
(274,600,l)
);
}
);
width = 600;
}
);
unicode = 106;
}
{
glyphname = l;
layers = (
{
layerId = m01;
shapes = (
{
closed = 1;
nodes = (
(240,505,l),
(240,599,l),
(180,600,l),
(180,551,l)
);
},
{
closed = 1;
nodes = (
(180,43,l),
(180,0,l),
(420,0,l),
(420,50,l),
(240,50,l),
(240,78,l)
);
},
{
closed = 1;
nodes = (
(180,457,l),
(180,133,l),
(240,168,l),
(240,411,l)
);
}
);
width = 600;
},
{
layerId = m002;
shapes = (
{
closed = 1;
nodes = (
(240,505,l),
(240,599,l),
(180,600,l),
(180,551,l)
);
},
{
closed = 1;
nodes = (
(180,43,l),
(180,0,l),
(420,0,l),
(420,50,l),
(240,50,l),
(240,78,l)
);
},
{
closed = 1;
nodes = (
(180,387,l),
(180,223,l),
(240,258,l),
(240,341,l)
);
}
);
width = 600;
},
{
associatedMasterId = m01;
layerId = "B05010A9-E4BF-440D-AE32-9020C90BB075";
name = "1. Apr 24, 10:02";
shapes = (
{
closed = 1;
nodes = (
(180,0,l),
(420,0,l),
(420,50,l),
(240,50,l),
(240,599,l),
(180,600,l)
);
}
);
width = 600;
}
);
unicode = 108;
}
{
glyphname = m;
lastChange = "2024-04-01 12:51:17 +0000";
layers = (
{
.lastUpdate = 733668532.117;
layerId = m01;
shapes = (
{
closed = 1;
nodes = (
(241,549,l),
(224,600,l),
(164,600,l),
(164,581,l)
);
},
{
closed = 1;
nodes = (
(436,467,l),
(436,600,l),
(376,600,l),
(347,504,l),
(379,491,l),
(382,502,l),
(382,489,l)
);
},
{
closed = 1;
nodes = (
(303,224,l),
(304,224,l),
(358,416,l),
(324,430,l),
(303,361,l),
(300,361,l),
(272,451,l),
(227,472,l)
);
},
{
closed = 1;
nodes = (
(436,217,l),
(436,387,l),
(382,409,l),
(382,195,l)
);
},
{
closed = 1;
nodes = (
(164,15,l),
(164,0,l),
(218,0,l),
(218,37,l)
);
},
{
closed = 1;
nodes = (
(382,105,l),
(382,0,l),
(436,0,l),
(436,127,l)
);
},
{
closed = 1;
nodes = (
(164,501,l),
(164,105,l),
(218,127,l),
(218,476,l)
);
}
);
width = 600;
},
{
.lastUpdate = 733668677.333;
layerId = m002;
shapes = (
{
closed = 1;
nodes = (
(241,549,l),
(224,600,l),
(164,600,l),
(164,581,l)
);
},
{
closed = 1;
nodes = (
(436,467,l),
(436,600,l),
(376,600,l),
(347,504,l),
(379,491,l),
(382,502,l),
(382,489,l)
);
},
{
closed = 1;
nodes = (
(300,233,l),
(308,238,l),
(340,351,l),
(304,365,l),
(303,361,l),
(300,361,l),
(298,367,l),
(252,389,l)
);
},
{
closed = 1;
nodes = (
(436,287,l),
(436,317,l),
(382,339,l),
(382,265,l)
);
},
{
closed = 1;
nodes = (
(164,15,l),
(164,0,l),
(218,0,l),
(218,37,l)
);
},
{
closed = 1;
nodes = (
(382,105,l),
(382,0,l),
(436,0,l),
(436,127,l)
);
},
{
closed = 1;
nodes = (
(164,431,l),
(164,175,l),
(218,197,l),
(218,406,l)
);
}
);
width = 600;
},
{
associatedMasterId = m002;
layerId = "B987A692-0158-4BEA-9D44-B4831D00A6CB";
name = "1. Apr 24, 14:38";
shapes = (
{
closed = 1;
nodes = (
(164,0,l),
(218,0,l),
(218,502,l),
(303,224,l),
(304,224,l),
(382,502,l),
(382,0,l),
(436,0,l),
(436,600,l),
(376,600,l),
(303,361,l),
(300,361,l),
(224,600,l),
(164,600,l)
);
}
);
visible = 1;
width = 600;
}
);
unicode = 109;
}
{
glyphname = n;
lastChange = "2024-04-01 13:03:09 +0000";
layers = (
{
.lastUpdate = 733669311.392;
layerId = m01;
shapes = (
{
closed = 1;
nodes = (
(249,532,l),
(226,600,l),
(166,600,l),
(166,501,l)
);
},
{
closed = 1;
nodes = (
(166,124,l),
(166,0,l),
(226,0,l),
(226,109,l)
);
},
{
closed = 1;
nodes = (
(346,78,l),
(374,0,l),
(434,0,l),
(434,56,l)
);
},
{
closed = 1;
nodes = (
(434,587,l),
(434,600,l),
(374,600,l),
(374,567,l)
);
},
{
closed = 1;
nodes = (
(374,151,l),
(434,136,l),
(434,507,l),
(374,487,l),
(374,153,l),
(374,153,l)
);
},
{
closed = 1;
nodes = (
(226,431,l),
(226,431,l),
(317,165,l),
(375,151,l),
(374,153,l),
(274,456,l),
(224,438,l)
);
},
{
closed = 1;
nodes = (
(226,439,l),
(166,418,l),
(166,204,l),
(226,189,l),
(226,431,l)
);
}
);
width = 600;
},
{
.lastUpdate = 733669389.841;
layerId = m002;
shapes = (
{
closed = 1;
nodes = (
(249,532,l),
(226,600,l),
(166,600,l),
(166,501,l)
);
},
{
closed = 1;
nodes = (
(166,124,l),
(166,0,l),
(226,0,l),
(226,109,l)
);
},
{
closed = 1;
nodes = (
(346,78,l),
(374,0,l),
(434,0,l),
(434,56,l)
);
},
{
closed = 1;
nodes = (
(434,587,l),
(434,600,l),
(374,600,l),
(374,567,l)
);
},
{
closed = 1;
nodes = (
(374,221,l),
(434,206,l),
(434,437,l),
(374,417,l),
(374,221,l),
(374,221,l)
);
},
{
closed = 1;
nodes = (
(245,376,l),
(245,376,l),
(294,235,l),
(351,226,l),
(351,226,l),
(294,394,l),
(245,376,l)
);
},
{
closed = 1;
nodes = (
(226,369,l),
(166,348,l),
(166,274,l),
(226,259,l),
(226,369,l)
);
}
);
width = 600;
},
{
associatedMasterId = m002;
layerId = "4EB02E51-E156-4B36-B026-120A09FAE680";
name = "6. Mar 24, 15:16";
shapes = (
{
closed = 1;
nodes = (
(166,0,l),
(226,0,l),
(226,600,l),
(166,600,l)
);
},
{
closed = 1;
nodes = (
(374,0,l),
(434,0,l),
(434,600,l),
(374,600,l)
);
},
{
closed = 1;
nodes = (
(226,600,l),
(201,504,l),
(374,0,l),
(414,32,l)
);
}
);
width = 600;
},
{
associatedMasterId = m002;
layerId = "3EC1F843-A02D-4D80-BECD-D155742364DC";
name = "1. Apr 24, 14:39";
shapes = (
{
closed = 1;
nodes = (
(166,0,l),
(226,0,l),
(226,431,l),
(374,0,l),
(434,0,l),
(434,600,l),
(374,600,l),
(374,153,l),
(226,600,l),
(166,600,l)
);
}
);
visible = 1;
width = 600;
}
);
unicode = 110;
}
{
glyphname = o;
layers = (
{
layerId = m01;
shapes = (
{
closed = 1;
nodes = (
(400,544,l),
(386,578,o),
(359,610,o),
(300,610,cs),
(216,610,o),
(190,539,o),
(180,469,c),
(240,489,l),
(244,514,o),
(253,560,o),
(300,560,cs),
(332,560,o),
(343,546,o),
(349,526,c)
);
},
{
closed = 1;
nodes = (
(231,225,l),
(230,250,o),
(230,268,o),
(230,301,cs),
(230,330,o),
(230,376,o),
(231,399,c),
(171,379,l),
(170,361,o),
(170,321,o),
(170,301,cs),
(170,283,o),
(170,276,o),
(171,259,c)
);
},
{
closed = 1;
nodes = (
(416,119,l),
(427,166,o),
(430,218,o),
(430,301,cs),
(430,357,o),
(427,424,o),
(422,463,c),
(367,444,l),
(369,411,o),
(370,351,o),
(370,301,cs),
(370,230,o),
(368,187,o),
(363,148,c)
);
},
{
closed = 1;
nodes = (
(344,67,l),
(324,41,o),
(313,40,o),
(296,40,cs),
(249,40,o),
(240,82,o),
(237,125,c),
(177,159,l),
(183,58,o),
(213,-10,o),
(296,-10,cs),
(351,-10,o),
(368,12,o),
(389,40,c)
);
}
);
width = 600;
},
{
layerId = m002;
shapes = (
{
closed = 1;
nodes = (
(400,544,l),
(386,578,o),
(359,610,o),
(300,610,cs),
(216,610,o),
(190,539,o),
(180,469,c),
(240,489,l),
(244,514,o),
(253,560,o),
(300,560,cs),
(332,560,o),
(343,546,o),
(349,526,c)
);
},
{
closed = 1;
nodes = (
(231,225,l),
(230,250,o),
(230,278,o),
(230,291,cs),
(230,300,o),
(231,307,o),
(231,319,c),
(170,298,l),
(170,290,o),
(170,283,o),
(170,283,cs),
(170,277,o),
(170,271,o),
(171,259,c)
);
},
{
closed = 1;
nodes = (
(416,119,l),
(427,166,o),
(430,218,o),
(430,301,cs),
(430,317,o),
(430,364,o),
(429,383,c),
(369,364,l),
(370,351,o),
(370,317,o),
(370,301,cs),
(370,230,o),
(368,187,o),
(363,148,c)
);
},
{
closed = 1;
nodes = (
(296,40,l),
(296,40,o),
(296,40,o),
(296,40,cs),
(269,40,o),
(257,54,o),
(251,65,c),
(185,100,l),
(195,33,o),
(233,-10,o),
(296,-10,cs),
(303,-10,o),
(340,-9,o),
(360,7,c)
);
}
);
width = 600;
},
{
associatedMasterId = m01;
layerId = "B90CDA9D-82F3-4E8D-AD2A-A27D8CED8832";
name = "6. Mar 24, 14:42";
shapes = (
{
closed = 1;
nodes = (
(386,-10,o),
(430,63,o),
(430,301,cs),
(430,544,o),
(390,610,o),
(300,610,cs),
(208,610,o),
(170,538,o),
(170,301,cs),
(170,57,o),
(206,-10,o),
(296,-10,cs)
);
},
{
closed = 1;
nodes = (
(241,40,o),
(230,85,o),
(230,301,cs),
(230,511,o),
(245,560,o),
(300,560,cs),
(355,560,o),
(370,515,o),
(370,301,cs),
(370,89,o),
(351,40,o),
(296,40,cs)
);
},
{
closed = 1;
nodes = (
(-299,162,l),
(-294,162,l),
(-294,184,l),
(-299,184,l)
);
}
);
width = 600;
},
{
associatedMasterId = m002;
layerId = "B87002AF-39D3-40E4-A7CC-B0B548D42450";
name = "1. Apr 24, 10:59";
shapes = (
{
closed = 1;
nodes = (
(386,-10,o),
(430,63,o),
(430,301,cs),
(430,544,o),
(390,610,o),
(300,610,cs),
(208,610,o),
(170,538,o),
(170,301,cs),
(170,57,o),
(206,-10,o),
(296,-10,cs)
);
},
{
closed = 1;
nodes = (
(241,40,o),
(230,85,o),
(230,301,cs),
(230,511,o),
(245,560,o),
(300,560,cs),
(355,560,o),
(370,515,o),
(370,301,cs),
(370,89,o),
(351,40,o),
(296,40,cs)
);
},
{
closed = 1;
nodes = (
(-299,162,l),
(-294,162,l),
(-294,184,l),
(-299,184,l)
);
}
);
visible = 1;
width = 600;
}
);
unicode = 111;
}
{
glyphname = p;
layers = (
{
layerId = m01;
shapes = (
{
closed = 1;
nodes = (
(466,445,l),
(466,445,o),
(466,445,o),
(466,445,cs),
(463,546,o),
(389,600,o),
(299,600,cs),
(213,600,l),
(213,551,l),
(273,526,l),
(273,550,l),
(302,550,ls),
(366,550,o),
(399,505,o),
(402,470,c)
);
},
{
closed = 1;
nodes = (
(273,162,l),
(273,262,l),
(295,262,ls),
(379,262,o),
(430,298,o),
(455,357,c),
(400,380,l),
(400,380,o),
(400,380,o),
(400,380,cs),
(392,347,o),
(362,312,o),
(295,312,cs),
(273,312,l),
(273,436,l),
(213,461,l),
(213,142,l)
);
},
{
closed = 1;
nodes = (
(213,42,l),
(213,0,l),
(273,0,l),
(273,62,l)
);
}
);
width = 600;
},
{
layerId = m002;
shapes = (
{
closed = 1;
nodes = (
(466,445,l),
(466,445,o),
(466,445,o),
(466,445,cs),
(463,546,o),
(389,600,o),
(299,600,cs),
(213,600,l),
(213,551,l),
(273,526,l),
(273,550,l),
(302,550,ls),
(366,550,o),
(399,505,o),
(402,470,c)
);
},
{
closed = 1;
nodes = (
(273,229,l),
(273,262,l),
(295,262,ls),
(329,262,o),
(378,265,o),
(419,305,c),
(362,329,l),
(362,329,o),
(362,329,o),
(362,329,cs),
(343,313,o),
(312,312,o),
(295,312,cs),
(273,312,l),
(273,366,l),
(213,391,l),
(213,209,l)
);
},
{
closed = 1;
nodes = (
(213,42,l),
(213,0,l),
(273,0,l),
(273,62,l)
);
}
);
width = 600;
}
);
unicode = 112;
}
{
color = 1;
glyphname = q;
layers = (
{
layerId = m01;
shapes = (
{
closed = 1;
nodes = (
);
},
{
closed = 1;
nodes = (
(423,440,l),
(411,555,o),
(382,610,o),
(304,610,cs),
(253,610,o),
(235,590,o),
(218,567,c),
(262,539,l),
(272,553,o),
(281,560,o),
(304,560,cs),
(351,560,o),
(356,521,o),
(363,475,c)
);
},
{
closed = 1;
nodes = (
(244,121,l),
(241,155,o),
(239,173,o),
(239,301,cs),
(239,368,o),
(240,419,o),
(243,457,c),
(191,487,l),
(183,441,o),
(179,380,o),
(179,301,cs),
(179,173,o),
(185,142,o),
(193,97,c)
);
},
{
closed = 1;
nodes = (
(425,207,l),
(427,238,o),
(428,244,o),
(428,301,cs),
(428,318,o),
(428,335,o),
(427,350,c),
(367,385,l),
(368,360,o),
(368,333,o),
(368,301,cs),
(368,222,o),
(367,211,o),
(365,178,c)
);
},
{
closed = 1;
nodes = (
(319,66,l),
(393,-10,l),
(427,28,l),
(364,88,l)
);
},
{
closed = 1;
nodes = (
(352,82,l),
(346,53,o),
(324,40,o),
(300,40,cs),
(292,40,o),
(282,40,o),
(273,46,c),
(224,22,l),
(248,-7,o),
(277,-10,o),
(300,-10,cs),
(368,-10,o),
(398,32,o),
(415,113,c)
);
}
);
width = 600;
},
{
layerId = m002;
shapes = (
{
closed = 1;
nodes = (
);
},
{
closed = 1;
nodes = (
(423,440,l),
(411,555,o),
(382,610,o),
(304,610,cs),
(253,610,o),
(235,590,o),
(218,567,c),
(262,539,l),
(272,553,o),
(281,560,o),
(304,560,cs),
(351,560,o),
(356,521,o),
(363,475,c)
);
},
{
closed = 1;
nodes = (
(241,161,l),
(239,185,o),
(239,203,o),
(239,301,cs),
(239,328,o),
(238,352,o),
(239,370,c),
(182,403,l),
(181,390,o),
(178,360,o),
(179,301,cs),
(181,173,o),
(183,162,o),
(187,137,c)
);
},
{
closed = 1;
nodes = (
(428,247,l),
(428,256,o),
(428,259,o),
(428,266,cs),
(428,275,o),
(428,259,o),
(428,266,c),
(368,301,l),
(368,284,o),
(368,323,o),
(368,301,cs),
(368,262,o),
(368,241,o),
(367,218,c)
);
},
{
closed = 1;
nodes = (
(331,55,l),
(393,-10,l),
(427,28,l),
(375,79,l)
);
},
{
closed = 1;
nodes = (
(375,79,l),
(361,70,o),
(315,47,o),
(300,40,cs),
(300,40,o),
(288,34,o),
(273,27,c),
(237,9,l),
(257,-8,o),
(277,-10,o),
(300,-10,cs),
(368,-10,o),
(400,37,o),
(412,98,c)
);
}
);
width = 600;
},
{
associatedMasterId = m002;
layerId = "17AF5C46-2D5B-4B34-92FB-3E5E773AB1E5";
name = "1. Apr 24, 11:17";
shapes = (
{
closed = 1;
nodes = (
);
},
{
closed = 1;
nodes = (
(294,92,l),
(393,-10,l),
(427,28,l),
(327,128,l)
);
},
{
closed = 1;
nodes = (
(390,-10,o),
(428,63,o),
(428,301,cs),
(428,544,o),
(394,610,o),
(304,610,cs),
(212,610,o),
(179,538,o),
(179,301,cs),
(179,57,o),
(210,-10,o),
(300,-10,cs)
);
},
{
closed = 1;
nodes = (
(245,40,o),
(239,85,o),
(239,301,cs),
(239,511,o),
(249,560,o),
(304,560,cs),
(359,560,o),
(368,515,o),
(368,301,cs),
(368,89,o),
(354,40,o),
(300,40,cs)
);
}
);
width = 600;
}
);
unicode = 113;
}
{
glyphname = u;
layers = (
{
layerId = m01;
shapes = (
{
closed = 1;
nodes = (
(232,544,l),
(233,568,o),
(234,584,o),
(234,600,c),
(176,600,l),
(176,592,o),
(176,579,o),
(175,568,c)
);
},
{
closed = 1;
nodes = (
(427,463,l),
(427,518,o),
(426,569,o),
(426,600,c),
(369,600,l),
(369,576,o),
(370,536,o),
(370,487,c)
);
},
{
closed = 1;
nodes = (
(358,98,l),
(353,79,o),
(345,40,o),
(300,40,cs),
(295,40,o),
(279,41,o),
(268,50,c),
(215,24,l),
(244,-12,o),
(284,-10,o),
(300,-10,cs),
(392,-10,o),
(409,53,o),
(420,126,c)
);
},
{
closed = 1;
nodes = (
(175,478,l),
(174,442,o),
(173,370,o),
(173,300,cs),
(173,227,o),
(176,159,o),
(182,114,c),
(236,137,l),
(232,175,o),
(230,234,o),
(230,300,cs),
(230,366,o),
(231,423,o),
(232,454,c)
);
},
{
closed = 1;
nodes = (
(370,397,l),
(371,379,o),
(371,347,o),
(371,300,cs),
(371,263,o),
(371,221,o),
(369,193,c),
(427,217,l),
(428,239,o),
(428,274,o),
(428,300,cs),
(428,338,o),
(428,361,o),
(427,373,c)
);
}
);
width = 600;
},
{
layerId = m002;
shapes = (
{
closed = 1;
nodes = (
(232,544,l),
(233,568,o),
(234,584,o),
(234,600,c),
(176,600,l),
(176,592,o),
(176,579,o),
(175,568,c)
);
},
{
closed = 1;
nodes = (
(427,463,l),
(427,518,o),
(426,569,o),
(426,600,c),
(369,600,l),
(369,576,o),
(370,536,o),
(370,487,c)
);
},
{
closed = 1;
nodes = (
(358,98,l),
(353,79,o),
(345,40,o),
(300,40,cs),
(295,40,o),
(279,41,o),
(268,50,c),
(215,24,l),
(244,-12,o),
(284,-10,o),
(300,-10,cs),
(392,-10,o),
(409,53,o),
(420,126,c)
);
},
{
closed = 1;
nodes = (
(175,408,l),
(174,392,o),
(173,340,o),
(173,300,cs),
(173,267,o),
(176,219,o),
(182,174,c),
(236,197,l),
(232,235,o),
(230,274,o),
(230,300,cs),
(230,336,o),
(231,373,o),
(232,384,c)
);
},
{
closed = 1;
nodes = (
(370,327,l),
(371,309,o),
(371,317,o),
(371,300,cs),
(371,283,o),
(370,270,o),
(369,253,c),
(427,277,l),
(428,289,o),
(428,283,o),
(428,300,cs),
(428,308,o),
(428,291,o),
(427,303,c)
);
}
);
width = 600;
},
{
associatedMasterId = m002;
layerId = "9815107B-1000-4B21-ACF7-F710E73166E2";
name = "1. Apr 24, 12:07";
shapes = (
{
closed = 1;
nodes = (
(369,600,l),
(369,560,o),
(371,415,o),
(371,300,cs),
(371,89,o),
(355,40,o),
(300,40,cs),
(245,40,o),
(230,89,o),
(230,300,cs),
(230,413,o),
(234,561,o),
(234,600,c),
(176,600,l),
(176,552,o),
(173,403,o),
(173,300,cs),
(173,63,o),
(195,-10,o),
(300,-10,cs),
(405,-10,o),
(428,63,o),
(428,300,cs),
(428,406,o),
(426,552,o),
(426,600,c)
);
}
);
width = 600;
}
);
unicode = 117;
}
{
glyphname = v;
lastChange = "2024-04-01 13:32:04 +0000";
layers = (
{
.lastUpdate = 733671021.204;
layerId = m01;
shapes = (
{
closed = 1;
nodes = (
(221,498,l),
(204,601,l),
(144,591,l),
(167,480,l)
);
},
{
closed = 1;
nodes = (
(451,565,l),
(456,591,l),
(396,601,l),
(385,544,l)
);
},
{
closed = 1;
nodes = (
(297,89,l),
(294,72,l),
(291,90,l),
(239,106,l),
(260,0,l),
(325,0,l),
(341,74,l)
);
},
{
closed = 1;
nodes = (
(182,400,l),
(221,192,l),
(276,173,l),
(236,418,l)
);
},
{
closed = 1;
nodes = (
(368,455,l),
(312,162,l),
(359,146,l),
(431,476,l)
);
}
);
width = 600;
},
{
.lastUpdate = 733671124.616;
layerId = m002;
shapes = (
{
closed = 1;
nodes = (
(221,498,l),
(204,601,l),
(144,591,l),
(167,480,l)
);
},
{
closed = 1;
nodes = (
(451,565,l),
(456,591,l),
(396,601,l),
(385,544,l)
);
},
{
closed = 1;
nodes = (
(297,89,l),
(294,72,l),
(291,90,l),
(239,106,l),
(260,0,l),
(325,0,l),
(341,74,l)
);
},
{
closed = 1;
nodes = (
(195,330,l),
(206,272,l),
(263,255,l),
(248,348,l)
);
},
{
closed = 1;
nodes = (
(353,379,l),
(328,241,l),
(376,226,l),
(415,400,l)
);
}
);
width = 600;
},
{
associatedMasterId = m002;
layerId = "82BA192A-588A-404C-83D2-09E955F7905A";
name = "1. Apr 24, 15:24";
shapes = (
{
closed = 1;
nodes = (
(294,72,l),
(204,601,l),
(144,591,l),
(260,0,l),
(325,0,l),
(456,591,l),
(396,601,l)
);
}
);
width = 600;
}
);
unicode = 118;
}
{
glyphname = w;
layers = (
{
layerId = m01;
shapes = (
{
closed = 1;
nodes = (
(208,403,l),
(195,601,l),
(130,591,l),
(154,387,l)
);
},
{
closed = 1;
nodes = (
(189,87,l),
(199,0,l),
(241,0,l),
(251,61,l)
);
},
{
closed = 1;
nodes = (
(348,26,l),
(352,0,l),
(394,0,l),
(395,5,l)
);
},
{
closed = 1;
nodes = (
(326,441,l),
(322,465,l),
(278,465,l),
(271,421,l)
);
},
{
closed = 1;
nodes = (
(263,135,l),
(298,352,l),
(260,339,l),
(232,147,l)
);
},
{
closed = 1;
nodes = (
(452,480,l),
(466,591,l),
(401,601,l),
(393,462,l)
);
},
{
closed = 1;
nodes = (
(374,99,l),
(404,87,l),
(443,397,l),
(388,379,l),
(373,135,l),
(371,135,l)
);
},
{
closed = 1;
nodes = (
(214,323,l),
(163,307,l),
(179,171,l),
(226,150,l)
);
},
{
closed = 1;
nodes = (
(371,135,l),
(370,135,l),
(336,365,l),
(300,353,l),
(336,113,l),
(374,99,l)
);
}
);
width = 600;
},
{
layerId = m002;
shapes = (
{
closed = 1;
nodes = (
(208,403,l),
(195,601,l),
(130,591,l),
(154,387,l)
);
},
{
closed = 1;
nodes = (
(190,77,l),
(199,0,l),
(241,0,l),
(249,51,l)
);
},
{
closed = 1;
nodes = (
(349,21,l),
(352,0,l),
(394,0,l),
(394,0,l)
);
},
{
closed = 1;
nodes = (
(326,441,l),
(322,465,l),
(278,465,l),
(271,421,l)
);
},
{
closed = 1;
nodes = (
(272,193,l),
(286,276,l),
(248,263,l),
(240,205,l)
);
},
{
closed = 1;
nodes = (
(452,480,l),
(466,591,l),
(401,601,l),
(393,462,l)
);
},
{
closed = 1;
nodes = (
(374,159,l),
(412,147,l),
(434,327,l),
(383,309,l),
(374,159,l),
(374,159,l)
);
},
{
closed = 1;
nodes = (
(219,253,l),
(171,236,l),
(171,231,l),
(222,210,l)
);
},
{
closed = 1;
nodes = (
(366,161,l),
(366,161,l),
(346,295,l),
(310,283,l),
(326,178,l),
(366,161,l)
);
}
);
width = 600;
},
{
associatedMasterId = m002;
layerId = "0CFCC7F9-E737-42AE-BA5B-A5F0F8B2BCDC";
name = "1. Apr 24, 13:59";
shapes = (
{
closed = 1;
nodes = (
(230,136,l),
(227,136,l),
(195,601,l),
(130,591,l),
(199,0,l),
(241,0,l),
(298,351,l),
(301,351,l),
(352,0,l),
(394,0,l),
(466,591,l),
(401,601,l),
(373,135,l),
(370,135,l),
(322,465,l),
(278,465,l)
);
}
);
visible = 1;
width = 600;
}
);
unicode = 119;
}
{
glyphname = x;
lastChange = "2024-04-01 13:51:05 +0000";
layers = (
{
.lastUpdate = 733672013.498;
layerId = m01;
shapes = (
{
closed = 1;
nodes = (
(200,606,l),
(148,583,l),
(221,416,l),
(294,378,l)
);
},
{
closed = 1;
nodes = (
(149,33,l),
(145,23,l),
(197,0,l),
(222,59,l)
);
},
{
closed = 1;
nodes = (
(357,108,l),
(403,0,l),
(455,23,l),
(408,127,l)
);
},
{
closed = 1;
nodes = (
(270,303,l),
(198,141,l),
(269,167,l),
(300,243,l),
(323,187,l),
(374,206,l),
(347,267,l)
);
},
{
closed = 1;
nodes = (
(350,350,l),
(452,583,l),
(400,606,l),
(304,374,l)
);
}
);
width = 600;
},
{
associatedMasterId = m01;
layerId = "4EAD342E-45BC-427F-A5D0-BA453A0F36AD";
name = "30. Aug 23, 16:08";
shapes = (
{
closed = 1;
nodes = (
(149,17,l),
(193,0,l),
(449,583,l),
(403,600,l)
);
},
{
closed = 1;
nodes = (
(151,583,l),
(406,0,l),
(451,17,l),
(197,600,l)
);
}
);
width = 600;
},
{
.lastUpdate = 733672265.755;
layerId = m002;
shapes = (
{
closed = 1;
nodes = (
(200,606,l),
(148,583,l),
(180,509,l),
(256,471,l)
);
},
{
closed = 1;
nodes = (
(145,23,l),
(145,23,l),
(197,0,l),
(218,48,l)
);
},
{
closed = 1;
nodes = (
(360,98,l),
(403,0,l),
(455,23,l),
(412,117,l)
);
},
{
closed = 1;
nodes = (
(270,303,l),
(227,205,l),
(294,226,l),
(300,243,l),
(306,231,l),
(354,248,l),
(347,267,l)
);
},
{
closed = 1;
nodes = (
(378,417,l),
(452,583,l),
(400,606,l),
(332,441,l)
);
}
);
width = 600;
},
{
associatedMasterId = m002;
layerId = "5933E46C-2F02-4DD2-90BF-C92D9E63E1E2";
name = "30. Aug 23, 16:08";
shapes = (
{
closed = 1;
nodes = (
(149,17,l),
(193,0,l),
(449,583,l),
(403,600,l)
);
},
{
closed = 1;
nodes = (
(151,583,l),
(406,0,l),
(451,17,l),
(197,600,l)
);
}
);
width = 600;
},
{
associatedMasterId = m002;
layerId = "6AAD8E83-CEE6-4B1E-AD40-1837FA7F5B1C";
name = "1. Apr 24, 15:24";
shapes = (
{
closed = 1;
nodes = (
(300,364,l),
(200,606,l),
(148,583,l),
(270,303,l),
(145,23,l),
(197,0,l),
(300,243,l),
(403,0,l),
(455,23,l),
(329,303,l),
(452,583,l),
(400,606,l)
);
}
);
width = 600;
}
);
unicode = 120;
}
{
glyphname = z;
lastChange = "2024-04-01 14:02:35 +0000";
layers = (
{
.lastUpdate = 733672903.147;
layerId = m01;
shapes = (
{
closed = 1;
nodes = (
(379,482,l),
(407,550,l),
(406,600,l),
(154,600,l),
(146,550,l),
(348,550,l),
(336,521,l)
);
},
{
closed = 1;
nodes = (
(266,188,l),
(348,399,l),
(306,441,l),
(200,170,l)
);
},
{
closed = 1;
nodes = (
(167,84,l),
(153,50,l),
(154,0,l),
(406,0,l),
(414,50,l),
(213,50,l),
(234,102,l)
);
}
);
width = 600;
},
{
associatedMasterId = m01;
layerId = "7768AD07-05DF-4D58-B76C-131B80DB4127";
name = "16. Aug 23, 16:28";
shapes = (
{
closed = 1;
nodes = (
(133,43,l),
(186,43,l),
(427,657,l),
(376,657,l)
);
},
{
closed = 1;
nodes = (
(124,657,l),
(427,657,l),
(427,700,l),
(133,700,l)
);
},
{
closed = 1;
nodes = (
(133,0,l),
(427,0,l),
(436,43,l),
(133,43,l)
);
}
);
width = 600;
},
{
.lastUpdate = 733672955.354;
layerId = m002;
shapes = (
{
closed = 1;
nodes = (
(379,482,l),
(407,550,l),
(406,600,l),
(154,600,l),
(208,550,l),
(348,550,l),
(336,521,l)
);
},
{
closed = 1;
nodes = (
(289,256,l),
(319,325,l),
(277,367,l),
(223,238,l)
);
},
{
closed = 1;
nodes = (
(167,84,l),
(153,50,l),
(154,0,l),
(406,0,l),
(354,50,l),
(213,50,l),
(234,102,l)
);
}
);
width = 600;
},
{
associatedMasterId = m002;
layerId = "05E6ECFF-670E-4D5C-A484-861B5B3D7530";
name = "16. Aug 23, 16:28";
shapes = (
{
closed = 1;
nodes = (
(133,43,l),
(186,43,l),
(427,657,l),
(376,657,l)
);
},
{
closed = 1;
nodes = (
(124,657,l),
(427,657,l),
(427,700,l),
(133,700,l)
);
},
{
closed = 1;
nodes = (
(133,0,l),
(427,0,l),
(436,43,l),
(133,43,l)
);
}
);
width = 600;
},
{
associatedMasterId = m002;
layerId = "210FE4FB-8391-442C-ADF9-9DF0ABEFED08";
name = "1. Apr 24, 15:24";
shapes = (
{
closed = 1;
nodes = (
(153,50,l),
(154,0,l),
(406,0,l),
(414,50,l),
(213,50,l),
(407,550,l),
(406,600,l),
(154,600,l),
(146,550,l),
(348,550,l)
);
}
);
width = 600;
}
);
unicode = 122;
}
